<?xml version="1.0" encoding="UTF-8"?>
<!-- Generated by Pixelmator Pro 3.6.18 -->
<svg width="1206" height="2666" viewBox="0 0 1206 2666" xmlns="http://www.w3.org/2000/svg">
    <g id="iPhone-16-Pro">
        <path id="Display" fill="#f6f6f6" fill-rule="evenodd" stroke="none" d="M 23.970751 2569.86084 C 0 2527.057861 0 2469.971924 0 2355.800049 L 1.5e-05 354.199951 C 1.5e-05 240.028076 1.5e-05 182.941895 23.970766 140.13916 C 40.911949 109.888428 65.888565 84.911865 96.139221 67.970703 C 138.942078 44 196.028061 44 310.200012 44 L 895.800049 44 C 1009.971985 44 1067.057983 44 1109.86084 67.970703 C 1140.11145 84.911865 1165.088135 109.888428 1182.029297 140.13916 C 1206 182.941895 1206 240.028076 1206 354.199951 L 1206 2355.800049 C 1206 2469.971924 1206 2527.057861 1182.029297 2569.86084 C 1165.088135 2600.111328 1140.11145 2625.088135 1109.86084 2642.029297 C 1067.057983 2666 1009.971924 2666 895.799988 2666 L 310.200012 2666 C 196.028046 2666 138.942062 2666 96.139206 2642.029297 C 65.88855 2625.088135 40.911934 2600.111328 23.970751 2569.86084 Z M 470 195 C 440.176636 195 416 170.823486 416 141 C 416 111.176514 440.176636 87 470 87 L 736 87 C 765.823364 87 790 111.176514 790 141 C 790 170.823486 765.823364 195 736 195 L 470 195 Z"/>
    </g>
</svg>
