<?xml version="1.0" encoding="UTF-8"?>
<!-- Generated by Pixelmator Pro 3.6.18 -->
<svg width="2004" height="2666" viewBox="0 0 2004 2666" xmlns="http://www.w3.org/2000/svg">
    <g id="iPhone-16-Pro">
        <path id="Display" fill="#f6f6f6" fill-rule="evenodd" stroke="none" d="M 422.970764 2569.86084 C 399 2527.057861 399 2469.971924 399 2355.800049 L 399.000031 354.199951 C 399.000031 240.028076 399.000031 182.941895 422.970764 140.13916 C 439.911957 109.888428 464.88855 84.911865 495.139221 67.970703 C 537.942078 44 595.028076 44 709.200012 44 L 1294.800049 44 C 1408.971924 44 1466.057983 44 1508.86084 67.970703 C 1539.11145 84.911865 1564.088135 109.888428 1581.029297 140.13916 C 1605 182.941895 1605 240.028076 1605 354.199951 L 1605 2355.800049 C 1605 2469.971924 1605 2527.057861 1581.029297 2569.86084 C 1564.088135 2600.111328 1539.11145 2625.088135 1508.86084 2642.029297 C 1466.057983 2666 1408.971924 2666 1294.800049 2666 L 709.200012 2666 C 595.028076 2666 537.942078 2666 495.139221 2642.029297 C 464.88855 2625.088135 439.911926 2600.111328 422.970764 2569.86084 Z M 869 195 C 839.176636 195 815 170.823486 815 141 C 815 111.176514 839.176636 87 869 87 L 1135 87 C 1164.823364 87 1189 111.176514 1189 141 C 1189 170.823486 1164.823364 195 1135 195 L 869 195 Z"/>
    </g>
</svg>
