<?xml version="1.0" encoding="UTF-8"?>
<!-- Generated by Pixelmator Pro 3.6.18 -->
<svg width="2004" height="2666" viewBox="0 0 2004 2666" xmlns="http://www.w3.org/2000/svg">
    <g id="iPhone-16-Pro">
        <g id="Lock-Screen-Overlay" style="isolation:isolate">
            <path id="Bounding-Box" fill="none" stroke="none" d="M -0 0 L 2004 0 L 2004 2666 L -0 2666 Z"/>
            <path id="Path" fill="#ffffff" stroke="none" d="M 1211.019897 2628.457031 L 792.980042 2628.457031 C 788.827576 2628.457031 785.461365 2631.818848 785.461365 2635.965576 L 785.461365 2635.965576 C 785.461365 2640.112549 788.827576 2643.474121 792.980042 2643.474121 L 1211.019897 2643.474121 C 1215.172363 2643.474121 1218.538696 2640.112549 1218.538696 2635.965576 L 1218.538696 2635.965576 C 1218.538696 2631.818848 1215.172363 2628.457031 1211.019897 2628.457031 Z"/>
            <path id="path1" fill="#000000" fill-opacity="0.26" stroke="none" d="M 1392.972534 2367.158203 L 1392.972534 2367.158203 C 1434.497192 2367.158203 1468.159546 2400.775146 1468.159546 2442.243896 L 1468.159546 2442.243896 C 1468.159546 2483.712891 1434.497192 2517.329834 1392.972534 2517.329834 L 1392.972534 2517.329834 C 1351.447876 2517.329834 1317.785522 2483.712891 1317.785522 2442.243896 L 1317.785522 2442.243896 C 1317.785522 2400.775146 1351.447876 2367.158203 1392.972534 2367.158203 Z"/>
            <path id="path2" fill="#ffffff" stroke="none" d="M 1376.160767 2408.869873 L 1376.160767 2407.761475 C 1376.160767 2403.220459 1378.380249 2400.949707 1382.822266 2400.949707 L 1403.095703 2400.949707 C 1407.53772 2400.949707 1409.757324 2403.220459 1409.757324 2407.761475 L 1409.757324 2408.869873 L 1376.160767 2408.869873 Z M 1389.775635 2481.462891 C 1387.607178 2481.462891 1385.959106 2480.880127 1384.831299 2479.720947 C 1383.703491 2478.558594 1383.138184 2476.867676 1383.138184 2474.650879 L 1383.138184 2435.39917 C 1383.138184 2433.533936 1382.936646 2431.939209 1382.53064 2430.620605 C 1382.142578 2429.28418 1381.616333 2428.10376 1380.945679 2427.082764 L 1378.963745 2424.021973 C 1378.133667 2422.71875 1377.457031 2421.451172 1376.927734 2420.219727 C 1376.416382 2418.970215 1376.160767 2417.570801 1376.160767 2416.023926 L 1376.160767 2412.855469 L 1409.757324 2412.855469 L 1409.757324 2416.023926 C 1409.757324 2417.570801 1409.492676 2418.970215 1408.963257 2420.219727 C 1408.437012 2421.451172 1407.757324 2422.71875 1406.930298 2424.021973 L 1404.972412 2427.082764 C 1404.30481 2428.10376 1403.766357 2429.28418 1403.360474 2430.620605 C 1402.972534 2431.939209 1402.779907 2433.533936 1402.779907 2435.39917 L 1402.779907 2474.650879 C 1402.779907 2476.867676 1402.205566 2478.558594 1401.059692 2479.720947 C 1399.931885 2480.880127 1398.295776 2481.462891 1396.145386 2481.462891 L 1389.775635 2481.462891 Z M 1386.918457 2438.459717 L 1386.918457 2448.809326 C 1386.918457 2450.497314 1387.501953 2451.924072 1388.662842 2453.083496 C 1389.826782 2454.227539 1391.264282 2454.801514 1392.972534 2454.801514 C 1394.118408 2454.801514 1395.140991 2454.537109 1396.040161 2454.008301 C 1396.954468 2453.47998 1397.67627 2452.768066 1398.205566 2451.870117 C 1398.734863 2450.954102 1398.999512 2449.935791 1398.999512 2448.809326 L 1398.999512 2438.459717 C 1398.999512 2437.333252 1398.734863 2436.321289 1398.205566 2435.423096 C 1397.67627 2434.51001 1396.954468 2433.789307 1396.040161 2433.260742 C 1395.140991 2432.714111 1394.118408 2432.440918 1392.972534 2432.440918 C 1391.264282 2432.440918 1389.826782 2433.023438 1388.662842 2434.182617 C 1387.501953 2435.345215 1386.918457 2436.771729 1386.918457 2438.459717 Z M 1392.972534 2452.689941 C 1391.862793 2452.689941 1390.92749 2452.317627 1390.169556 2451.578613 C 1389.429688 2450.839844 1389.059814 2449.917725 1389.059814 2448.809326 C 1389.059814 2447.734375 1389.438843 2446.818359 1390.196655 2446.061279 C 1390.95459 2445.307617 1391.880859 2444.928955 1392.972534 2444.928955 C 1394.046265 2444.928955 1394.963501 2445.307617 1395.721436 2446.061279 C 1396.497314 2446.818359 1396.885254 2447.734375 1396.885254 2448.809326 C 1396.885254 2449.917725 1396.515381 2450.839844 1395.775513 2451.578613 C 1395.035767 2452.317627 1394.100342 2452.689941 1392.972534 2452.689941 Z"/>
            <path id="path3" fill="#000000" fill-opacity="0.26" stroke="none" d="M 611.027405 2367.158203 L 611.027405 2367.158203 C 652.552063 2367.158203 686.214478 2400.775146 686.214478 2442.243896 L 686.214478 2442.243896 C 686.214478 2483.712891 652.552063 2517.329834 611.027405 2517.329834 L 611.027405 2517.329834 C 569.502808 2517.329834 535.840393 2483.712891 535.840393 2442.243896 L 535.840393 2442.243896 C 535.840393 2400.775146 569.502808 2367.158203 611.027405 2367.158203 Z"/>
            <path id="path4" fill="#ffffff" stroke="none" d="M 639.416565 2433.735352 C 640.596985 2433.735352 641.610229 2433.320801 642.456238 2432.494873 C 643.301941 2431.650879 643.725098 2430.629639 643.725098 2429.431396 C 643.725098 2428.271973 643.301941 2427.268799 642.456238 2426.421875 C 641.610229 2425.577881 640.596985 2425.157471 639.416565 2425.157471 C 638.235779 2425.157471 637.222595 2425.577881 636.376587 2426.421875 C 635.530884 2427.268799 635.107727 2428.271973 635.107727 2429.431396 C 635.107727 2430.629639 635.530884 2431.650879 636.376587 2432.494873 C 637.222595 2433.320801 638.235779 2433.735352 639.416565 2433.735352 Z M 580.047974 2472.698975 C 576.506042 2472.698975 573.818542 2471.791748 571.986145 2469.977783 C 570.170776 2468.184814 569.263428 2465.535645 569.263428 2462.033691 L 569.263428 2426.265625 C 569.263428 2422.763672 570.170776 2420.114746 571.986145 2418.318604 C 573.818542 2416.507568 576.506042 2415.600586 580.047974 2415.600586 L 589.088135 2415.600586 C 589.986816 2415.600586 590.709167 2415.537354 591.255615 2415.414307 C 591.819519 2415.29126 592.330505 2415.071777 592.788574 2414.756592 C 593.246887 2414.438232 593.740417 2413.990723 594.26886 2413.407959 L 597.044434 2410.398438 C 597.643555 2409.767822 598.260376 2409.248047 598.894653 2408.842773 C 599.529236 2408.437256 600.24292 2408.140137 601.035645 2407.944824 C 601.846497 2407.752441 602.824524 2407.65332 603.969788 2407.65332 L 617.741333 2407.65332 C 618.886902 2407.65332 619.864929 2407.752441 620.675415 2407.944824 C 621.485962 2408.140137 622.199646 2408.437256 622.816467 2408.842773 C 623.45105 2409.248047 624.067566 2409.767822 624.666992 2410.398438 L 627.415833 2413.407959 C 627.979736 2414.008789 628.481934 2414.465088 628.922546 2414.780518 C 629.380615 2415.080811 629.882813 2415.29126 630.429321 2415.414307 C 630.993225 2415.537354 631.724304 2415.600586 632.62323 2415.600586 L 642.006897 2415.600586 C 645.531372 2415.600586 648.201111 2416.507568 650.016113 2418.318604 C 651.848572 2420.114746 652.764954 2422.763672 652.764954 2426.265625 L 652.764954 2462.033691 C 652.764954 2465.535645 651.848572 2468.184814 650.016113 2469.977783 C 648.201111 2471.791748 645.531372 2472.698975 642.006897 2472.698975 L 580.047974 2472.698975 Z M 611.027405 2462.480957 C 613.600342 2462.480957 615.996704 2462.006592 618.217102 2461.057373 C 620.455322 2460.105469 622.420105 2458.786865 624.111755 2457.095947 C 625.820923 2455.390137 627.151428 2453.419922 628.102966 2451.185059 C 629.072327 2448.932617 629.556824 2446.520996 629.556824 2443.949951 C 629.556824 2441.38208 629.072327 2438.979248 628.102966 2436.744629 C 627.151428 2434.492188 625.829956 2432.521973 624.138245 2430.831055 C 622.446533 2429.125 620.48175 2427.794434 618.243591 2426.845215 C 616.005676 2425.89624 613.600342 2425.418701 611.027405 2425.418701 C 608.454529 2425.418701 606.049133 2425.89624 603.811279 2426.845215 C 601.57312 2427.794434 599.608337 2429.125 597.916626 2430.831055 C 596.224915 2432.521973 594.903442 2434.492188 593.951843 2436.744629 C 593.000305 2438.979248 592.524536 2441.38208 592.524536 2443.949951 C 592.524536 2446.520996 593.000305 2448.932617 593.951843 2451.185059 C 594.903442 2453.419922 596.224915 2455.390137 597.916626 2457.095947 C 599.608337 2458.786865 601.57312 2460.105469 603.811279 2461.057373 C 606.049133 2462.006592 608.454529 2462.480957 611.027405 2462.480957 Z M 611.027405 2457.123047 C 609.212402 2457.123047 607.502991 2456.789795 605.899353 2456.119873 C 604.313538 2455.435059 602.912659 2454.491943 601.696716 2453.296631 C 600.49823 2452.080322 599.55542 2450.683594 598.868164 2449.097656 C 598.19873 2447.49707 597.863708 2445.781982 597.863708 2443.949951 C 597.863708 2442.12085 598.19873 2440.414795 598.868164 2438.829102 C 599.55542 2437.228271 600.49823 2435.828613 601.696716 2434.633301 C 602.912659 2433.419922 604.313538 2432.476807 605.899353 2431.807129 C 607.502991 2431.122314 609.212402 2430.779785 611.027405 2430.779785 C 612.842468 2430.779785 614.542847 2431.122314 616.129028 2431.807129 C 617.732605 2432.476807 619.133484 2433.419922 620.33197 2434.633301 C 621.547607 2435.828613 622.490479 2437.228271 623.160217 2438.829102 C 623.829651 2440.414795 624.164734 2442.12085 624.164734 2443.949951 C 624.164734 2445.781982 623.829651 2447.49707 623.160217 2449.097656 C 622.490479 2450.683594 621.547607 2452.080322 620.33197 2453.296631 C 619.133484 2454.491943 617.732605 2455.435059 616.129028 2456.119873 C 614.542847 2456.789795 612.842468 2457.123047 611.027405 2457.123047 Z"/>
            <g id="Group">
                <path id="path5" fill="#ffffff" fill-opacity="0.8" fill-rule="evenodd" stroke="none" d="M 868.103943 615.493896 C 855.228882 624.408081 839.770447 628.865112 821.725525 628.865112 C 802.8927 628.865112 787.076355 624.314941 774.270508 615.217529 C 761.467651 606.120117 752.887329 593.989258 748.52948 578.824951 C 747.786621 576.563232 747.934021 574.740234 748.971558 573.352783 C 750.006165 571.968018 751.687317 571.274414 754.018127 571.274414 L 777.347168 571.274414 C 779.68396 571.274414 781.524536 571.730713 782.874939 572.640625 C 784.222229 573.550781 785.428284 575.016602 786.489868 577.031982 C 789.698853 583.714355 794.264221 588.94043 800.185974 592.709717 C 806.107727 596.482178 813.415894 598.365479 822.110535 598.365479 C 833.740417 598.365479 843.165894 594.908447 850.392883 587.991455 C 857.616821 581.074463 862.964172 571.706787 866.428772 559.891113 C 869.79718 548.403076 871.5896 535.530518 871.809143 521.276123 C 869.923462 524.771973 867.64978 528.057861 864.997192 531.13623 C 859.186768 537.870117 851.938721 543.137939 843.250061 546.9375 C 834.561523 550.739746 824.742065 552.641113 813.791809 552.641113 C 800.068665 552.641113 787.903381 549.655518 777.296021 543.687744 C 766.68866 537.719971 758.382019 529.535645 752.373047 519.131592 C 746.361084 508.730713 743.356628 496.930176 743.356628 483.727295 C 743.356628 469.403809 746.791138 456.684082 753.660217 445.5625 C 760.526306 434.440674 769.951782 425.71875 781.930542 419.399414 C 793.909363 413.080322 807.533264 409.920654 822.799194 409.920654 C 838.738892 409.920654 852.600403 413.4646 864.383667 420.555908 C 876.166992 427.646729 885.472107 437.068604 892.296082 448.818359 C 897.835876 458.272949 901.865906 468.634766 904.386169 479.897705 C 906.903442 491.160645 908.163574 503.498535 908.163574 516.917969 C 908.163574 540.302734 904.704956 560.3479 897.790771 577.059082 C 890.876587 593.76709 880.981995 606.579834 868.103943 615.493896 Z M 801.139343 517.644775 C 807.515198 521.177002 814.78125 522.942871 822.940613 522.942871 C 830.862244 522.942871 838.002075 521.177002 844.362915 517.644775 C 850.720703 514.113037 855.773254 509.304443 859.517517 503.213379 C 863.264893 497.125488 865.135559 490.244629 865.135559 482.567627 C 865.135559 474.560791 863.264893 467.343262 859.517517 460.922119 C 855.773254 454.500732 850.738708 449.439941 844.411011 445.742676 C 838.086243 442.04541 830.994629 440.195313 823.14209 440.195313 C 815.250427 440.195313 808.098633 442.027344 801.689697 445.69165 C 795.283813 449.355713 790.174072 454.33252 786.360596 460.621582 C 782.55011 466.910889 780.643372 473.99292 780.643372 481.86792 C 780.643372 489.809082 782.465881 496.876221 786.110962 503.063232 C 789.755981 509.253174 794.766479 514.113037 801.139343 517.644775 Z"/>
                <path id="path6" fill="#ffffff" fill-rule="evenodd" stroke="none" style="mix-blend-mode:color-dodge" d="M 868.103943 615.493896 C 855.228882 624.408081 839.770447 628.865112 821.725525 628.865112 C 802.8927 628.865112 787.076355 624.314941 774.270508 615.217529 C 761.467651 606.120117 752.887329 593.989258 748.52948 578.824951 C 747.786621 576.563232 747.934021 574.740234 748.971558 573.352783 C 750.006165 571.968018 751.687317 571.274414 754.018127 571.274414 L 777.347168 571.274414 C 779.68396 571.274414 781.524536 571.730713 782.874939 572.640625 C 784.222229 573.550781 785.428284 575.016602 786.489868 577.031982 C 789.698853 583.714355 794.264221 588.94043 800.185974 592.709717 C 806.107727 596.482178 813.415894 598.365479 822.110535 598.365479 C 833.740417 598.365479 843.165894 594.908447 850.392883 587.991455 C 857.616821 581.074463 862.964172 571.706787 866.428772 559.891113 C 869.79718 548.403076 871.5896 535.530518 871.809143 521.276123 C 869.923462 524.771973 867.64978 528.057861 864.997192 531.13623 C 859.186768 537.870117 851.938721 543.137939 843.250061 546.9375 C 834.561523 550.739746 824.742065 552.641113 813.791809 552.641113 C 800.068665 552.641113 787.903381 549.655518 777.296021 543.687744 C 766.68866 537.719971 758.382019 529.535645 752.373047 519.131592 C 746.361084 508.730713 743.356628 496.930176 743.356628 483.727295 C 743.356628 469.403809 746.791138 456.684082 753.660217 445.5625 C 760.526306 434.440674 769.951782 425.71875 781.930542 419.399414 C 793.909363 413.080322 807.533264 409.920654 822.799194 409.920654 C 838.738892 409.920654 852.600403 413.4646 864.383667 420.555908 C 876.166992 427.646729 885.472107 437.068604 892.296082 448.818359 C 897.835876 458.272949 901.865906 468.634766 904.386169 479.897705 C 906.903442 491.160645 908.163574 503.498535 908.163574 516.917969 C 908.163574 540.302734 904.704956 560.3479 897.790771 577.059082 C 890.876587 593.76709 880.981995 606.579834 868.103943 615.493896 Z M 801.139343 517.644775 C 807.515198 521.177002 814.78125 522.942871 822.940613 522.942871 C 830.862244 522.942871 838.002075 521.177002 844.362915 517.644775 C 850.720703 514.113037 855.773254 509.304443 859.517517 503.213379 C 863.264893 497.125488 865.135559 490.244629 865.135559 482.567627 C 865.135559 474.560791 863.264893 467.343262 859.517517 460.922119 C 855.773254 454.500732 850.738708 449.439941 844.411011 445.742676 C 838.086243 442.04541 830.994629 440.195313 823.14209 440.195313 C 815.250427 440.195313 808.098633 442.027344 801.689697 445.69165 C 795.283813 449.355713 790.174072 454.33252 786.360596 460.621582 C 782.55011 466.910889 780.643372 473.99292 780.643372 481.86792 C 780.643372 489.809082 782.465881 496.876221 786.110962 503.063232 C 789.755981 509.253174 794.766479 514.113037 801.139343 517.644775 Z"/>
                <path id="path7" fill="#ffffff" fill-opacity="0.8" fill-rule="evenodd" stroke="none" d="M 965.64856 482.168457 C 961.537354 486.273926 956.544922 488.325195 950.671326 488.325195 C 944.698486 488.325195 939.657898 486.273926 935.543701 482.168457 C 931.432434 478.05957 929.378357 473.025879 929.378357 467.061035 C 929.378357 461.195313 931.432434 456.209473 935.543701 452.104004 C 939.657898 447.998047 944.698486 445.943848 950.671326 445.943848 C 956.544922 445.943848 961.537354 447.998047 965.64856 452.104004 C 969.759827 456.209473 971.816956 461.195313 971.816956 467.061035 C 971.816956 473.025879 969.759827 478.05957 965.64856 482.168457 Z M 965.64856 588.051514 C 961.537354 592.157227 956.544922 594.208496 950.671326 594.208496 C 944.698486 594.208496 939.657898 592.157227 935.543701 588.051514 C 931.432434 583.942871 929.378357 578.957031 929.378357 573.091309 C 929.378357 567.225586 931.432434 562.23999 935.543701 558.134277 C 939.657898 554.025391 944.698486 551.974121 950.671326 551.974121 C 956.544922 551.974121 961.537354 554.025391 965.64856 558.134277 C 969.759827 562.23999 971.816956 567.225586 971.816956 573.091309 C 971.816956 578.957031 969.759827 583.942871 965.64856 588.051514 Z"/>
                <path id="path8" fill="#ffffff" fill-rule="evenodd" stroke="none" style="mix-blend-mode:color-dodge" d="M 965.64856 482.168457 C 961.537354 486.273926 956.544922 488.325195 950.671326 488.325195 C 944.698486 488.325195 939.657898 486.273926 935.543701 482.168457 C 931.432434 478.05957 929.378357 473.025879 929.378357 467.061035 C 929.378357 461.195313 931.432434 456.209473 935.543701 452.104004 C 939.657898 447.998047 944.698486 445.943848 950.671326 445.943848 C 956.544922 445.943848 961.537354 447.998047 965.64856 452.104004 C 969.759827 456.209473 971.816956 461.195313 971.816956 467.061035 C 971.816956 473.025879 969.759827 478.05957 965.64856 482.168457 Z M 965.64856 588.051514 C 961.537354 592.157227 956.544922 594.208496 950.671326 594.208496 C 944.698486 594.208496 939.657898 592.157227 935.543701 588.051514 C 931.432434 583.942871 929.378357 578.957031 929.378357 573.091309 C 929.378357 567.225586 931.432434 562.23999 935.543701 558.134277 C 939.657898 554.025391 944.698486 551.974121 950.671326 551.974121 C 956.544922 551.974121 961.537354 554.025391 965.64856 558.134277 C 969.759827 562.23999 971.816956 567.225586 971.816956 573.091309 C 971.816956 578.957031 969.759827 583.942871 965.64856 588.051514 Z"/>
                <path id="path9" fill="#ffffff" fill-opacity="0.8" fill-rule="evenodd" stroke="none" d="M 1125.760864 625.152832 L 1104.377686 625.152832 C 1099.472534 625.152832 1097.018311 622.702148 1097.018311 617.803467 L 1097.018311 584.468506 L 998.616577 584.468506 C 993.705383 584.468506 991.251221 582.017578 991.251221 577.118896 L 991.251221 557.894043 C 991.251221 555.734375 991.455811 553.887451 991.858765 552.352783 C 992.264771 550.817871 993.082825 549.018799 994.309875 546.958496 C 1000.718811 535.866699 1007.708191 524.036133 1015.284058 511.466797 C 1022.856873 498.900635 1031.503418 485.099609 1041.220581 470.064453 C 1050.937744 455.029297 1062.197754 438.234131 1075.00061 419.678955 C 1077.785522 415.582031 1081.277222 413.533691 1085.472656 413.533691 L 1125.760864 413.533691 C 1130.669067 413.533691 1133.123169 415.984619 1133.123169 420.88623 L 1133.123169 553.743164 L 1154.226685 553.743164 C 1159.131836 553.743164 1161.585938 556.194092 1161.585938 561.092529 L 1161.585938 577.118896 C 1161.585938 582.017578 1159.197998 584.468506 1154.425171 584.468506 L 1133.123169 584.468506 L 1133.123169 617.803467 C 1133.123169 622.702148 1130.669067 625.152832 1125.760864 625.152832 Z M 1045.623535 519.63916 C 1038.537842 531.118408 1031.876343 542.486328 1025.644775 553.743164 L 1097.577759 553.743164 L 1097.577759 440.489502 C 1087.024536 455.870117 1077.499878 470.037354 1069.003662 482.991211 C 1060.504517 495.942139 1052.712158 508.159912 1045.623535 519.63916 Z"/>
                <path id="path10" fill="#ffffff" fill-rule="evenodd" stroke="none" style="mix-blend-mode:color-dodge" d="M 1125.760864 625.152832 L 1104.377686 625.152832 C 1099.472534 625.152832 1097.018311 622.702148 1097.018311 617.803467 L 1097.018311 584.468506 L 998.616577 584.468506 C 993.705383 584.468506 991.251221 582.017578 991.251221 577.118896 L 991.251221 557.894043 C 991.251221 555.734375 991.455811 553.887451 991.858765 552.352783 C 992.264771 550.817871 993.082825 549.018799 994.309875 546.958496 C 1000.718811 535.866699 1007.708191 524.036133 1015.284058 511.466797 C 1022.856873 498.900635 1031.503418 485.099609 1041.220581 470.064453 C 1050.937744 455.029297 1062.197754 438.234131 1075.00061 419.678955 C 1077.785522 415.582031 1081.277222 413.533691 1085.472656 413.533691 L 1125.760864 413.533691 C 1130.669067 413.533691 1133.123169 415.984619 1133.123169 420.88623 L 1133.123169 553.743164 L 1154.226685 553.743164 C 1159.131836 553.743164 1161.585938 556.194092 1161.585938 561.092529 L 1161.585938 577.118896 C 1161.585938 582.017578 1159.197998 584.468506 1154.425171 584.468506 L 1133.123169 584.468506 L 1133.123169 617.803467 C 1133.123169 622.702148 1130.669067 625.152832 1125.760864 625.152832 Z M 1045.623535 519.63916 C 1038.537842 531.118408 1031.876343 542.486328 1025.644775 553.743164 L 1097.577759 553.743164 L 1097.577759 440.489502 C 1087.024536 455.870117 1077.499878 470.037354 1069.003662 482.991211 C 1060.504517 495.942139 1052.712158 508.159912 1045.623535 519.63916 Z"/>
                <path id="path11" fill="#ffffff" fill-opacity="0.8" stroke="none" d="M 1228.448364 625.152832 L 1250.905151 625.152832 C 1255.813354 625.152832 1258.267456 622.702148 1258.267456 617.800537 L 1258.267456 420.883301 C 1258.267456 415.984619 1255.813354 413.533691 1250.905151 413.533691 L 1227.69043 413.533691 C 1224.872314 413.533691 1222.598755 413.831055 1220.866455 414.428955 C 1219.137207 415.026611 1217.251465 416.020508 1215.215332 417.411133 C 1208.18396 422.315918 1200.74646 427.517822 1192.896851 433.01709 C 1185.050293 438.519531 1177.576782 443.754395 1170.479126 448.725098 C 1168.470093 450.085693 1167.143799 451.500244 1166.497192 452.968994 C 1165.847534 454.440674 1165.525757 456.468018 1165.525757 459.053955 L 1165.525757 478.365967 C 1165.525757 480.624512 1166.455078 482.120117 1168.31665 482.850098 C 1170.181274 483.577148 1172.015991 483.261475 1173.829468 481.904053 C 1181.943604 476.308594 1190.012695 470.695068 1198.033691 465.066895 C 1206.051514 459.438232 1213.735718 454.092285 1221.088989 449.031494 L 1221.088989 617.800537 C 1221.088989 622.702148 1223.543091 625.152832 1228.448364 625.152832 Z"/>
                <path id="path12" fill="#ffffff" stroke="none" style="mix-blend-mode:color-dodge" d="M 1228.448364 625.152832 L 1250.905151 625.152832 C 1255.813354 625.152832 1258.267456 622.702148 1258.267456 617.800537 L 1258.267456 420.883301 C 1258.267456 415.984619 1255.813354 413.533691 1250.905151 413.533691 L 1227.69043 413.533691 C 1224.872314 413.533691 1222.598755 413.831055 1220.866455 414.428955 C 1219.137207 415.026611 1217.251465 416.020508 1215.215332 417.411133 C 1208.18396 422.315918 1200.74646 427.517822 1192.896851 433.01709 C 1185.050293 438.519531 1177.576782 443.754395 1170.479126 448.725098 C 1168.470093 450.085693 1167.143799 451.500244 1166.497192 452.968994 C 1165.847534 454.440674 1165.525757 456.468018 1165.525757 459.053955 L 1165.525757 478.365967 C 1165.525757 480.624512 1166.455078 482.120117 1168.31665 482.850098 C 1170.181274 483.577148 1172.015991 483.261475 1173.829468 481.904053 C 1181.943604 476.308594 1190.012695 470.695068 1198.033691 465.066895 C 1206.051514 459.438232 1213.735718 454.092285 1221.088989 449.031494 L 1221.088989 617.800537 C 1221.088989 622.702148 1223.543091 625.152832 1228.448364 625.152832 Z"/>
            </g>
            <path id="path13" fill="#ffffff" stroke="none" opacity="0.35" d="M 1321.895752 183.059082 L 1459.237427 183.059082 C 1461.175293 183.059082 1462.746216 184.62793 1462.746216 186.563232 L 1462.746216 186.563232 C 1462.746216 188.498291 1461.175293 190.067139 1459.237427 190.067139 L 1321.895752 190.067139 C 1319.957886 190.067139 1318.387085 188.498291 1318.387085 186.563232 L 1318.387085 186.563232 C 1318.387085 184.62793 1319.957886 183.059082 1321.895752 183.059082 Z"/>
            <path id="path14" fill="none" stroke="#ffffff" stroke-width="3.005459" opacity="0.35" d="M 1439.588501 120.887939 L 1488.911255 120.887939 C 1495.223022 120.887939 1500.339722 125.997803 1500.339722 132.301025 L 1500.339722 145.516113 C 1500.339722 151.819336 1495.223022 156.929199 1488.911255 156.929199 L 1439.588501 156.929199 C 1433.276733 156.929199 1428.160156 151.819336 1428.160156 145.516113 L 1428.160156 132.301025 C 1428.160156 125.997803 1433.276733 120.887939 1439.588501 120.887939 Z"/>
            <path id="path15" fill="#ffffff" stroke="none" opacity="0.4" d="M 1504.550171 133.402344 L 1504.550171 145.41626 C 1506.971191 144.398682 1508.544067 142.031494 1508.544067 139.409424 C 1508.544067 136.786621 1506.971191 134.419922 1504.550171 133.402344 Z"/>
            <path id="path16" fill="#ffffff" stroke="none" d="M 1439.588501 125.393066 L 1487.708252 125.393066 C 1491.860718 125.393066 1495.226929 128.754883 1495.226929 132.901611 L 1495.226929 144.915283 C 1495.226929 149.062256 1491.860718 152.424072 1487.708252 152.424072 L 1439.588501 152.424072 C 1435.436035 152.424072 1432.069824 149.062256 1432.069824 144.915283 L 1432.069824 132.901611 C 1432.069824 128.754883 1435.436035 125.393066 1439.588501 125.393066 Z"/>
            <path id="path17" fill="#ffffff" fill-rule="evenodd" stroke="none" d="M 1378.750122 128.458496 C 1386.229736 128.45874 1393.423706 131.176758 1398.846191 136.05127 C 1399.255127 136.42749 1399.907837 136.422607 1400.307861 136.040283 L 1404.211548 132.316162 C 1404.412964 132.12207 1404.527344 131.859619 1404.527344 131.586182 C 1404.524292 131.313232 1404.406982 131.052002 1404.202515 130.860352 C 1389.974121 117.964355 1367.526245 117.964355 1353.297974 130.860352 C 1353.090454 131.051514 1352.976074 131.312744 1352.973145 131.586182 C 1352.970093 131.859375 1353.084351 132.12207 1353.288818 132.316162 L 1357.192505 136.040283 C 1357.592529 136.42334 1358.245239 136.427979 1358.654175 136.05127 C 1364.07666 131.176514 1371.27063 128.458496 1378.750122 128.458496 Z M 1378.744263 140.898926 C 1382.828369 140.898682 1386.765137 142.407227 1389.790649 145.131348 C 1390.199707 145.518066 1390.843262 145.509766 1391.243286 145.112549 L 1395.113892 141.223633 C 1395.318359 141.019287 1395.432617 140.742676 1395.429688 140.455322 C 1395.426758 140.167725 1395.306396 139.893066 1395.098877 139.693359 C 1385.883911 131.171631 1371.613525 131.171631 1362.401489 139.693359 C 1362.19104 139.893066 1362.07373 140.167969 1362.070679 140.455322 C 1362.067627 140.743164 1362.182007 141.019775 1362.386475 141.223633 L 1366.25708 145.112549 C 1366.654053 145.509766 1367.300659 145.518066 1367.709717 145.131348 C 1370.7323 142.40918 1374.666016 140.900879 1378.744263 140.898926 Z M 1386.332031 149.133789 C 1386.335083 149.444336 1386.223877 149.743652 1386.022217 149.961426 L 1379.474976 157.19751 C 1379.285522 157.410156 1379.023926 157.529785 1378.750122 157.529785 C 1378.47644 157.529785 1378.214844 157.410156 1378.022339 157.19751 L 1371.475098 149.961426 C 1371.27356 149.743652 1371.162231 149.444336 1371.168335 149.133789 C 1371.174438 148.823242 1371.297607 148.528809 1371.508179 148.320801 C 1375.688599 144.447754 1381.811768 144.447754 1385.992188 148.320801 C 1386.202759 148.529297 1386.32605 148.823242 1386.332031 149.133789 Z"/>
            <path id="path18" fill="#ffffff" fill-rule="evenodd" stroke="none" d="M 1330.416992 124.266846 C 1330.416992 122.400879 1328.97937 120.887939 1327.208008 120.887939 L 1324.001953 120.887939 C 1322.230591 120.887939 1320.792969 122.400879 1320.792969 124.266846 L 1320.792969 153.550293 C 1320.792969 155.416504 1322.230591 156.929199 1324.001953 156.929199 L 1327.208008 156.929199 C 1328.97937 156.929199 1330.416992 155.416504 1330.416992 153.550293 L 1330.416992 124.266846 Z M 1308.062378 128.096191 L 1311.268311 128.096191 C 1313.039673 128.096191 1314.477295 129.645508 1314.477295 131.556152 L 1314.477295 153.469238 C 1314.477295 155.380127 1313.039673 156.929199 1311.268311 156.929199 L 1308.062378 156.929199 C 1306.291016 156.929199 1304.853394 155.380127 1304.853394 153.469238 L 1304.853394 131.556152 C 1304.853394 129.645508 1306.291016 128.096191 1308.062378 128.096191 Z M 1295.027954 135.905029 L 1291.822021 135.905029 C 1290.050537 135.905029 1288.612915 137.473877 1288.612915 139.409424 L 1288.612915 153.425049 C 1288.612915 155.360596 1290.050537 156.929199 1291.822021 156.929199 L 1295.027954 156.929199 C 1296.799316 156.929199 1298.236938 155.360596 1298.236938 153.425049 L 1298.236938 139.409424 C 1298.236938 137.473877 1296.799316 135.905029 1295.027954 135.905029 Z M 1279.088257 143.113281 L 1275.882202 143.113281 C 1274.11084 143.113281 1272.67334 144.659912 1272.67334 146.567383 L 1272.67334 153.475342 C 1272.67334 155.382568 1274.11084 156.929199 1275.882202 156.929199 L 1279.088257 156.929199 C 1280.859619 156.929199 1282.297241 155.382568 1282.297241 153.475342 L 1282.297241 146.567383 C 1282.297241 144.659912 1280.859619 143.113281 1279.088257 143.113281 Z"/>
            <path id="path19" fill="#ffffff" stroke="none" d="M 832.99762 342.842041 L 832.99762 296.285645 L 862.140076 296.285645 L 862.140076 302.544922 L 840.266724 302.544922 L 840.266724 317.256836 L 860.296509 317.256836 L 860.296509 323.354736 L 840.266724 323.354736 L 840.266724 342.842041 L 832.99762 342.842041 Z M 868.482849 342.842041 L 868.482849 308.384277 L 875.493347 308.384277 L 875.493347 313.933838 L 875.848206 313.933838 C 876.431641 311.998047 877.454163 310.481689 878.918823 309.384766 C 880.383484 308.287842 882.181946 307.739258 884.31427 307.739258 C 884.8526 307.739258 885.357849 307.77124 885.833008 307.835938 C 886.326233 307.900635 886.726257 307.965088 887.026978 308.029541 L 887.026978 314.514893 C 886.596924 314.385498 886.079651 314.288818 885.475159 314.224121 C 884.894653 314.159668 884.269165 314.127686 883.601501 314.127686 C 881.965393 314.127686 880.533813 314.460938 879.306763 315.127686 C 878.100769 315.772949 877.162476 316.708496 876.494812 317.93457 C 875.827148 319.13916 875.493347 320.59082 875.493347 322.290039 L 875.493347 342.842041 L 868.482849 342.842041 Z M 892.112671 342.842041 L 892.112671 308.384277 L 899.123108 308.384277 L 899.123108 342.842041 L 892.112671 342.842041 Z M 895.634399 302.673828 C 894.47052 302.673828 893.468994 302.265137 892.629944 301.447998 C 891.808899 300.609131 891.399902 299.619385 891.399902 298.479736 C 891.399902 297.318115 891.808899 296.328613 892.629944 295.511475 C 893.468994 294.694092 894.47052 294.2854 895.634399 294.2854 C 896.816345 294.2854 897.820862 294.694092 898.638916 295.511475 C 899.456909 296.328613 899.865906 297.318115 899.865906 298.479736 C 899.865906 299.619385 899.456909 300.609131 898.638916 301.447998 C 897.820862 302.265137 896.816345 302.673828 895.634399 302.673828 Z M 919.874695 343.487549 C 916.969482 343.487549 914.437195 342.755859 912.283875 341.293213 C 910.130493 339.830566 908.461304 337.765625 907.276367 335.098633 C 906.112488 332.431641 905.532043 329.269531 905.532043 325.613281 L 905.532043 325.581055 C 905.532043 321.924561 906.112488 318.762451 907.276367 316.095459 C 908.461304 313.428467 910.130493 311.374512 912.283875 309.933105 C 914.437195 308.470703 916.957458 307.739258 919.844604 307.739258 C 921.459656 307.739258 922.954346 307.99707 924.334778 308.513672 C 925.733276 309.029785 926.960327 309.76123 928.01593 310.70752 C 929.092651 311.632324 929.95575 312.73999 930.602356 314.030518 L 930.957275 314.030518 L 930.957275 295.220947 L 937.967712 295.220947 L 937.967712 342.842041 L 930.957275 342.842041 L 930.957275 337.195801 L 930.602356 337.195801 C 929.934692 338.508057 929.071594 339.626465 928.01593 340.55127 C 926.960327 341.47583 925.7453 342.196777 924.367859 342.712891 C 923.008484 343.229492 921.513794 343.487549 919.874695 343.487549 Z M 921.814514 337.454102 C 923.667114 337.454102 925.282166 336.980713 926.659607 336.034424 C 928.040039 335.066406 929.104675 333.700684 929.859558 331.936768 C 930.635437 330.151611 931.020447 328.054443 931.020447 325.645508 L 931.020447 325.581055 C 931.020447 323.171875 930.635437 321.085693 929.859558 319.321777 C 929.083618 317.536621 928.006958 316.159912 926.626526 315.191895 C 925.270142 314.224121 923.667114 313.73999 921.814514 313.73999 C 919.940857 313.73999 918.313843 314.224121 916.936401 315.191895 C 915.555969 316.138428 914.503357 317.493408 913.769531 319.257568 C 913.038696 321.020996 912.671814 323.128906 912.671814 325.581055 L 912.671814 325.613281 C 912.671814 328.065186 913.038696 330.184082 913.769531 331.969238 C 914.503357 333.73291 915.546936 335.087891 916.90332 336.034424 C 918.280701 336.980713 919.9198 337.454102 921.814514 337.454102 Z M 955.847229 343.45459 C 953.606628 343.45459 951.624695 343.025146 949.901428 342.164307 C 948.178101 341.304199 946.821716 340.099609 945.829285 338.550781 C 944.839844 336.980713 944.343567 335.16333 944.343567 333.098633 L 944.343567 333.033936 C 944.343567 331.011963 944.851868 329.269531 945.862366 327.806885 C 946.875916 326.344727 948.340515 325.193848 950.256287 324.35498 C 952.172058 323.494629 954.499817 322.989258 957.233643 322.838379 L 970.126709 322.064209 L 970.126709 327.000488 L 958.171997 327.74292 C 955.931396 327.871582 954.241211 328.376953 953.098389 329.258789 C 951.958496 330.119385 951.387085 331.30249 951.387085 332.807861 L 951.387085 332.872803 C 951.387085 334.421143 951.967529 335.636475 953.13147 336.518311 C 954.316406 337.400391 955.856201 337.841309 957.750916 337.841309 C 959.432068 337.841309 960.938843 337.49707 962.27417 336.808594 C 963.609497 336.120361 964.656067 335.195557 965.407959 334.033936 C 966.183899 332.851074 966.571899 331.517334 966.571899 330.033447 L 966.571899 319.483398 C 966.571899 317.590332 965.97937 316.127686 964.794434 315.095215 C 963.609497 314.04126 961.88623 313.514648 959.624573 313.514648 C 957.645691 313.514648 956.039673 313.901855 954.812622 314.676025 C 953.585571 315.450195 952.797607 316.482666 952.454773 317.773193 L 952.388611 317.999023 L 945.733032 317.999023 L 945.766113 317.676514 C 945.982605 315.740723 946.68042 314.030518 947.865356 312.546631 C 949.07135 311.041016 950.68634 309.85791 952.713379 308.997314 C 954.758484 308.137207 957.149475 307.707275 959.88324 307.707275 C 962.74939 307.707275 965.194397 308.180176 967.218445 309.126709 C 969.263611 310.051514 970.836487 311.374512 971.934204 313.094971 C 973.031921 314.794434 973.582275 316.82666 973.582275 319.192871 L 973.582275 342.842041 L 966.571899 342.842041 L 966.571899 337.679688 L 966.250061 337.679688 C 965.579407 338.862793 964.719299 339.895264 963.663635 340.7771 C 962.629028 341.637451 961.444092 342.304199 960.108765 342.777344 C 958.797485 343.229492 957.375 343.45459 955.847229 343.45459 Z M 984.385193 354.651367 C 983.825806 354.651367 983.242371 354.618408 982.640869 354.552246 C 982.060364 354.510254 981.552124 354.456299 981.12207 354.393066 L 981.12207 348.908936 C 981.422852 348.950928 981.77771 348.99292 982.186707 349.035156 C 982.598755 349.080078 983.016785 349.101074 983.446838 349.101074 C 985.085938 349.101074 986.400208 348.767822 987.389648 348.10083 C 988.403198 347.434082 989.176086 346.262695 989.714417 344.583984 L 990.264832 342.875 L 977.696533 308.384277 L 985.320496 308.384277 L 994.755005 338.680176 L 993.076843 336.16333 L 995.239197 336.16333 L 993.591064 338.680176 L 1003.025574 308.384277 L 1010.390869 308.384277 L 997.566956 344.292725 C 996.661743 346.854492 995.618164 348.88501 994.433167 350.392578 C 993.269287 351.918213 991.879822 353.005615 990.264832 353.651367 C 988.64978 354.318115 986.688904 354.651367 984.385193 354.651367 Z M 1030.414673 342.842041 L 1030.414673 337.873291 L 1046.405518 321.548096 C 1048.474609 319.440186 1050.068604 317.697998 1051.187378 316.321289 C 1052.309082 314.944824 1053.082031 313.708008 1053.515137 312.611084 C 1053.94519 311.513916 1054.161743 310.352539 1054.161743 309.126709 L 1054.161743 309.062012 C 1054.161743 307.556396 1053.815918 306.2229 1053.127197 305.061279 C 1052.459473 303.899902 1051.512207 302.985596 1050.282104 302.319092 C 1049.07605 301.6521 1047.644531 301.318848 1045.987427 301.318848 C 1044.222046 301.318848 1042.64917 301.684326 1041.268677 302.415527 C 1039.912354 303.146973 1038.847656 304.147217 1038.071777 305.416504 C 1037.316895 306.685303 1036.928833 308.137207 1036.907837 309.771973 L 1036.907837 309.933105 L 1030.059814 309.933105 L 1030.026733 309.771973 C 1030.026733 306.97583 1030.727417 304.491211 1032.125977 302.319092 C 1033.527466 300.125 1035.443237 298.415039 1037.876221 297.189209 C 1040.312256 295.963135 1043.067139 295.350098 1046.146851 295.350098 C 1049.100098 295.350098 1051.716675 295.920166 1053.99939 297.059814 C 1056.303101 298.200195 1058.101563 299.759277 1059.394775 301.738525 C 1060.708984 303.717041 1061.364624 305.975586 1061.364624 308.513672 L 1061.364624 308.610107 C 1061.364624 310.352539 1061.042847 312.041016 1060.39624 313.676025 C 1059.749634 315.288818 1058.639893 317.074219 1057.067017 319.031738 C 1055.49707 320.967285 1053.310669 323.333252 1050.510742 326.12915 L 1038.038696 338.389648 L 1040.237183 334.388672 L 1040.237183 338.389648 L 1038.071777 336.711914 L 1062.107544 336.711914 L 1062.107544 342.842041 L 1030.414673 342.842041 Z M 1085.135864 342.842041 L 1085.135864 296.285645 L 1093.535767 296.285645 L 1108.491943 333.388428 L 1108.849854 333.388428 L 1123.80603 296.285645 L 1132.205933 296.285645 L 1132.205933 342.842041 L 1125.583374 342.842041 L 1125.583374 308.610107 L 1122.127808 308.610107 L 1129.685547 297.576172 L 1111.336914 342.842041 L 1106.004761 342.842041 L 1087.656128 297.576172 L 1095.213867 308.610107 L 1091.758301 308.610107 L 1091.758301 342.842041 L 1085.135864 342.842041 Z M 1150.214722 343.45459 C 1147.974121 343.45459 1145.992188 343.025146 1144.268921 342.164307 C 1142.545654 341.304199 1141.189209 340.099609 1140.199829 338.550781 C 1139.207275 336.980713 1138.71106 335.16333 1138.71106 333.098633 L 1138.71106 333.033936 C 1138.71106 331.011963 1139.21936 329.269531 1140.229858 327.806885 C 1141.243408 326.344727 1142.708008 325.193848 1144.623779 324.35498 C 1146.542603 323.494629 1148.86731 322.989258 1151.604126 322.838379 L 1164.494263 322.064209 L 1164.494263 327.000488 L 1152.539429 327.74292 C 1150.29895 327.871582 1148.608643 328.376953 1147.468872 329.258789 C 1146.32605 330.119385 1145.754639 331.30249 1145.754639 332.807861 L 1145.754639 332.872803 C 1145.754639 334.421143 1146.338013 335.636475 1147.498901 336.518311 C 1148.683838 337.400391 1150.223755 337.841309 1152.118408 337.841309 C 1153.799561 337.841309 1155.306396 337.49707 1156.641724 336.808594 C 1157.977051 336.120361 1159.02356 335.195557 1159.775513 334.033936 C 1160.551392 332.851074 1160.939453 331.517334 1160.939453 330.033447 L 1160.939453 319.483398 C 1160.939453 317.590332 1160.346924 316.127686 1159.161987 315.095215 C 1157.977051 314.04126 1156.253662 313.514648 1153.992065 313.514648 C 1152.013184 313.514648 1150.407104 313.901855 1149.180176 314.676025 C 1147.953003 315.450195 1147.165161 316.482666 1146.822266 317.773193 L 1146.756104 317.999023 L 1140.100586 317.999023 L 1140.133545 317.676514 C 1140.350098 315.740723 1141.047852 314.030518 1142.23291 312.546631 C 1143.438843 311.041016 1145.053833 309.85791 1147.080933 308.997314 C 1149.125977 308.137207 1151.516968 307.707275 1154.250732 307.707275 C 1157.116821 307.707275 1159.56189 308.180176 1161.585938 309.126709 C 1163.631104 310.051514 1165.203979 311.374512 1166.301758 313.094971 C 1167.399414 314.794434 1167.949707 316.82666 1167.949707 319.192871 L 1167.949707 342.842041 L 1160.939453 342.842041 L 1160.939453 337.679688 L 1160.617554 337.679688 C 1159.949951 338.862793 1159.086792 339.895264 1158.031128 340.7771 C 1156.999512 341.637451 1155.814575 342.304199 1154.479248 342.777344 C 1153.165039 343.229492 1151.742432 343.45459 1150.214722 343.45459 Z M 1178.752686 354.651367 C 1178.193237 354.651367 1177.612793 354.618408 1177.008423 354.552246 C 1176.427856 354.510254 1175.919678 354.456299 1175.489624 354.393066 L 1175.489624 348.908936 C 1175.790405 348.950928 1176.148193 348.99292 1176.557129 349.035156 C 1176.966187 349.080078 1177.384277 349.101074 1177.817383 349.101074 C 1179.453369 349.101074 1180.7677 348.767822 1181.75708 348.10083 C 1182.77063 347.434082 1183.546631 346.262695 1184.084961 344.583984 L 1184.632324 342.875 L 1172.064087 308.384277 L 1179.69104 308.384277 L 1189.122437 338.680176 L 1187.444336 336.16333 L 1189.606689 336.16333 L 1187.96167 338.680176 L 1197.393066 308.384277 L 1204.761353 308.384277 L 1191.934448 344.292725 C 1191.029175 346.854492 1189.985718 348.88501 1188.800659 350.392578 C 1187.636841 351.918213 1186.247314 353.005615 1184.632324 353.651367 C 1183.017334 354.318115 1181.056396 354.651367 1178.752686 354.651367 Z"/>
        </g>
    </g>
</svg>
