<?xml version="1.0" encoding="UTF-8"?>
<!-- Generated by Pixelmator Pro 3.6.18 -->
<svg width="1206" height="2666" viewBox="0 0 1206 2666" xmlns="http://www.w3.org/2000/svg">
    <g id="iPhone-16-Pro">
        <g id="Lock-Screen-Overlay" style="isolation:isolate">
            <path id="Bounding-Box" fill="none" stroke="none" d="M -0 44 L 1206 44 L 1206 2666 L -0 2666 Z"/>
            <path id="Path" fill="#ffffff" stroke="none" d="M 812.019958 2628.457031 L 393.980042 2628.457031 C 389.827606 2628.457031 386.461334 2631.818848 386.461334 2635.965576 L 386.461334 2635.965576 C 386.461334 2640.112549 389.827606 2643.474121 393.980042 2643.474121 L 812.019958 2643.474121 C 816.172424 2643.474121 819.538635 2640.112549 819.538635 2635.965576 L 819.538635 2635.965576 C 819.538635 2631.818848 816.172424 2628.457031 812.019958 2628.457031 Z"/>
            <path id="path1" fill="#000000" fill-opacity="0.26" stroke="none" d="M 993.972595 2367.158203 L 993.972595 2367.158203 C 1035.497192 2367.158203 1069.159546 2400.775146 1069.159546 2442.243896 L 1069.159546 2442.243896 C 1069.159546 2483.712891 1035.497192 2517.329834 993.972595 2517.329834 L 993.972595 2517.329834 C 952.447876 2517.329834 918.785522 2483.712891 918.785522 2442.243896 L 918.785522 2442.243896 C 918.785522 2400.775146 952.447876 2367.158203 993.972595 2367.158203 Z"/>
            <path id="path2" fill="#ffffff" stroke="none" d="M 977.160767 2408.869873 L 977.160767 2407.761475 C 977.160767 2403.220459 979.38031 2400.949707 983.822327 2400.949707 L 1004.095764 2400.949707 C 1008.537781 2400.949707 1010.757324 2403.220459 1010.757324 2407.761475 L 1010.757324 2408.869873 L 977.160767 2408.869873 Z M 990.775635 2481.462891 C 988.607239 2481.462891 986.959106 2480.880127 985.831299 2479.720947 C 984.703491 2478.558594 984.138123 2476.867676 984.138123 2474.650879 L 984.138123 2435.39917 C 984.138123 2433.533936 983.936584 2431.939209 983.53064 2430.620605 C 983.142578 2429.28418 982.616333 2428.10376 981.945679 2427.082764 L 979.963745 2424.021973 C 979.133667 2422.71875 978.45697 2421.451172 977.927673 2420.219727 C 977.416382 2418.970215 977.160767 2417.570801 977.160767 2416.023926 L 977.160767 2412.855469 L 1010.757324 2412.855469 L 1010.757324 2416.023926 C 1010.757324 2417.570801 1010.492676 2418.970215 1009.963318 2420.219727 C 1009.437012 2421.451172 1008.757324 2422.71875 1007.930237 2424.021973 L 1005.972412 2427.082764 C 1005.304749 2428.10376 1004.766357 2429.28418 1004.360413 2430.620605 C 1003.972473 2431.939209 1003.779907 2433.533936 1003.779907 2435.39917 L 1003.779907 2474.650879 C 1003.779907 2476.867676 1003.205566 2478.558594 1002.059692 2479.720947 C 1000.931885 2480.880127 999.295776 2481.462891 997.145447 2481.462891 L 990.775635 2481.462891 Z M 987.918518 2438.459717 L 987.918518 2448.809326 C 987.918518 2450.497314 988.501953 2451.924072 989.662781 2453.083496 C 990.826782 2454.227539 992.264343 2454.801514 993.972595 2454.801514 C 995.118469 2454.801514 996.140991 2454.537109 997.040161 2454.008301 C 997.954468 2453.47998 998.67627 2452.768066 999.205566 2451.870117 C 999.734863 2450.954102 999.999573 2449.935791 999.999573 2448.809326 L 999.999573 2438.459717 C 999.999573 2437.333252 999.734863 2436.321289 999.205566 2435.423096 C 998.67627 2434.51001 997.954468 2433.789307 997.040161 2433.260742 C 996.140991 2432.714111 995.118469 2432.440918 993.972595 2432.440918 C 992.264343 2432.440918 990.826782 2433.023438 989.662781 2434.182617 C 988.501953 2435.345215 987.918518 2436.771729 987.918518 2438.459717 Z M 993.972595 2452.689941 C 992.862854 2452.689941 991.92749 2452.317627 991.169556 2451.578613 C 990.429749 2450.839844 990.059875 2449.917725 990.059875 2448.809326 C 990.059875 2447.734375 990.438843 2446.818359 991.196655 2446.061279 C 991.95459 2445.307617 992.880859 2444.928955 993.972595 2444.928955 C 995.046204 2444.928955 995.963501 2445.307617 996.721436 2446.061279 C 997.497314 2446.818359 997.885315 2447.734375 997.885315 2448.809326 C 997.885315 2449.917725 997.515381 2450.839844 996.775574 2451.578613 C 996.035706 2452.317627 995.100403 2452.689941 993.972595 2452.689941 Z"/>
            <path id="path3" fill="#000000" fill-opacity="0.26" stroke="none" d="M 212.027435 2367.158203 L 212.027435 2367.158203 C 253.552094 2367.158203 287.214478 2400.775146 287.214478 2442.243896 L 287.214478 2442.243896 C 287.214478 2483.712891 253.552094 2517.329834 212.027435 2517.329834 L 212.027435 2517.329834 C 170.502777 2517.329834 136.840393 2483.712891 136.840393 2442.243896 L 136.840393 2442.243896 C 136.840393 2400.775146 170.502777 2367.158203 212.027435 2367.158203 Z"/>
            <path id="path4" fill="#ffffff" stroke="none" d="M 240.41655 2433.735352 C 241.596985 2433.735352 242.610199 2433.320801 243.456223 2432.494873 C 244.30191 2431.650879 244.725067 2430.629639 244.725067 2429.431396 C 244.725067 2428.271973 244.30191 2427.268799 243.456223 2426.421875 C 242.610199 2425.577881 241.596985 2425.157471 240.41655 2425.157471 C 239.235809 2425.157471 238.222595 2425.577881 237.376602 2426.421875 C 236.530884 2427.268799 236.107727 2428.271973 236.107727 2429.431396 C 236.107727 2430.629639 236.530884 2431.650879 237.376602 2432.494873 C 238.222595 2433.320801 239.235809 2433.735352 240.41655 2433.735352 Z M 181.047974 2472.698975 C 177.506058 2472.698975 174.818573 2471.791748 172.986115 2469.977783 C 171.170807 2468.184814 170.263443 2465.535645 170.263443 2462.033691 L 170.263443 2426.265625 C 170.263443 2422.763672 171.170807 2420.114746 172.986115 2418.318604 C 174.818573 2416.507568 177.506058 2415.600586 181.047974 2415.600586 L 190.088165 2415.600586 C 190.986786 2415.600586 191.709198 2415.537354 192.25563 2415.414307 C 192.819534 2415.29126 193.330536 2415.071777 193.788559 2414.756592 C 194.246902 2414.438232 194.740433 2413.990723 195.268829 2413.407959 L 198.044449 2410.398438 C 198.643524 2409.767822 199.260361 2409.248047 199.894638 2408.842773 C 200.529236 2408.437256 201.242905 2408.140137 202.03566 2407.944824 C 202.846512 2407.752441 203.824524 2407.65332 204.969772 2407.65332 L 218.741333 2407.65332 C 219.886871 2407.65332 220.864914 2407.752441 221.67543 2407.944824 C 222.485947 2408.140137 223.199615 2408.437256 223.816452 2408.842773 C 224.451035 2409.248047 225.067566 2409.767822 225.666962 2410.398438 L 228.415802 2413.407959 C 228.979706 2414.008789 229.481964 2414.465088 229.922562 2414.780518 C 230.380585 2415.080811 230.882843 2415.29126 231.429306 2415.414307 C 231.99321 2415.537354 232.724304 2415.600586 233.62326 2415.600586 L 243.006882 2415.600586 C 246.531372 2415.600586 249.201096 2416.507568 251.016113 2418.318604 C 252.848572 2420.114746 253.764954 2422.763672 253.764954 2426.265625 L 253.764954 2462.033691 C 253.764954 2465.535645 252.848572 2468.184814 251.016113 2469.977783 C 249.201096 2471.791748 246.531372 2472.698975 243.006882 2472.698975 L 181.047974 2472.698975 Z M 212.027435 2462.480957 C 214.600327 2462.480957 216.996689 2462.006592 219.217117 2461.057373 C 221.455292 2460.105469 223.420074 2458.786865 225.111786 2457.095947 C 226.820923 2455.390137 228.151428 2453.419922 229.102997 2451.185059 C 230.072327 2448.932617 230.556824 2446.520996 230.556824 2443.949951 C 230.556824 2441.38208 230.072327 2438.979248 229.102997 2436.744629 C 228.151428 2434.492188 226.829941 2432.521973 225.138245 2430.831055 C 223.446533 2429.125 221.48175 2427.794434 219.243576 2426.845215 C 217.005707 2425.89624 214.600327 2425.418701 212.027435 2425.418701 C 209.454529 2425.418701 207.049164 2425.89624 204.811279 2426.845215 C 202.573105 2427.794434 200.608337 2429.125 198.916626 2430.831055 C 197.224915 2432.521973 195.903427 2434.492188 194.951874 2436.744629 C 194.000275 2438.979248 193.524506 2441.38208 193.524506 2443.949951 C 193.524506 2446.520996 194.000275 2448.932617 194.951874 2451.185059 C 195.903427 2453.419922 197.224915 2455.390137 198.916626 2457.095947 C 200.608337 2458.786865 202.573105 2460.105469 204.811279 2461.057373 C 207.049164 2462.006592 209.454529 2462.480957 212.027435 2462.480957 Z M 212.027435 2457.123047 C 210.212418 2457.123047 208.502975 2456.789795 206.899368 2456.119873 C 205.313538 2455.435059 203.912659 2454.491943 202.696716 2453.296631 C 201.498245 2452.080322 200.555405 2450.683594 199.868179 2449.097656 C 199.198715 2447.49707 198.863693 2445.781982 198.863693 2443.949951 C 198.863693 2442.12085 199.198715 2440.414795 199.868179 2438.829102 C 200.555405 2437.228271 201.498245 2435.828613 202.696716 2434.633301 C 203.912659 2433.419922 205.313538 2432.476807 206.899368 2431.807129 C 208.502975 2431.122314 210.212418 2430.779785 212.027435 2430.779785 C 213.842453 2430.779785 215.542877 2431.122314 217.129013 2431.807129 C 218.732605 2432.476807 220.133484 2433.419922 221.331985 2434.633301 C 222.547607 2435.828613 223.490448 2437.228271 224.160217 2438.829102 C 224.829666 2440.414795 225.164719 2442.12085 225.164719 2443.949951 C 225.164719 2445.781982 224.829666 2447.49707 224.160217 2449.097656 C 223.490448 2450.683594 222.547607 2452.080322 221.331985 2453.296631 C 220.133484 2454.491943 218.732605 2455.435059 217.129013 2456.119873 C 215.542877 2456.789795 213.842453 2457.123047 212.027435 2457.123047 Z"/>
            <g id="Group">
                <path id="path5" fill="#ffffff" fill-opacity="0.8" fill-rule="evenodd" stroke="none" d="M 469.103943 615.493896 C 456.228882 624.408081 440.770447 628.865112 422.725555 628.865112 C 403.892731 628.865112 388.076385 624.314941 375.270508 615.217529 C 362.467682 606.120117 353.887299 593.989258 349.52948 578.824951 C 348.786621 576.563232 348.93399 574.740234 349.971558 573.352783 C 351.006134 571.968018 352.687317 571.274414 355.018127 571.274414 L 378.347168 571.274414 C 380.68399 571.274414 382.524567 571.730713 383.874908 572.640625 C 385.22226 573.550781 386.428253 575.016602 387.489899 577.031982 C 390.698883 583.714355 395.264252 588.94043 401.185974 592.709717 C 407.107727 596.482178 414.415894 598.365479 423.110535 598.365479 C 434.740417 598.365479 444.165894 594.908447 451.392853 587.991455 C 458.616852 581.074463 463.964142 571.706787 467.428741 559.891113 C 470.79715 548.403076 472.5896 535.530518 472.809143 521.276123 C 470.923462 524.771973 468.649811 528.057861 465.997192 531.13623 C 460.186768 537.870117 452.938721 543.137939 444.250092 546.9375 C 435.561493 550.739746 425.742065 552.641113 414.791809 552.641113 C 401.068665 552.641113 388.903412 549.655518 378.296051 543.687744 C 367.68866 537.719971 359.381989 529.535645 353.373047 519.131592 C 347.361084 508.730713 344.356598 496.930176 344.356598 483.727295 C 344.356598 469.403809 347.791138 456.684082 354.660248 445.5625 C 361.526306 434.440674 370.951782 425.71875 382.930542 419.399414 C 394.909393 413.080322 408.533264 409.920654 423.799194 409.920654 C 439.738861 409.920654 453.600372 413.4646 465.383698 420.555908 C 477.166992 427.646729 486.472137 437.068604 493.296082 448.818359 C 498.835907 458.272949 502.865906 468.634766 505.386169 479.897705 C 507.903442 491.160645 509.163574 503.498535 509.163574 516.917969 C 509.163574 540.302734 505.704987 560.3479 498.790802 577.059082 C 491.876556 593.76709 481.981964 606.579834 469.103943 615.493896 Z M 402.139343 517.644775 C 408.515198 521.177002 415.78125 522.942871 423.940582 522.942871 C 431.862274 522.942871 439.002045 521.177002 445.362885 517.644775 C 451.720703 514.113037 456.773254 509.304443 460.517548 503.213379 C 464.264862 497.125488 466.135559 490.244629 466.135559 482.567627 C 466.135559 474.560791 464.264862 467.343262 460.517548 460.922119 C 456.773254 454.500732 451.738739 449.439941 445.41098 445.742676 C 439.086243 442.04541 431.994598 440.195313 424.14209 440.195313 C 416.250458 440.195313 409.098633 442.027344 402.689697 445.69165 C 396.283813 449.355713 391.174072 454.33252 387.360565 460.621582 C 383.55011 466.910889 381.643372 473.99292 381.643372 481.86792 C 381.643372 489.809082 383.465881 496.876221 387.110962 503.063232 C 390.756012 509.253174 395.766479 514.113037 402.139343 517.644775 Z"/>
                <path id="path6" fill="#ffffff" fill-rule="evenodd" stroke="none" style="mix-blend-mode:color-dodge" d="M 469.103943 615.493896 C 456.228882 624.408081 440.770447 628.865112 422.725555 628.865112 C 403.892731 628.865112 388.076385 624.314941 375.270508 615.217529 C 362.467682 606.120117 353.887299 593.989258 349.52948 578.824951 C 348.786621 576.563232 348.93399 574.740234 349.971558 573.352783 C 351.006134 571.968018 352.687317 571.274414 355.018127 571.274414 L 378.347168 571.274414 C 380.68399 571.274414 382.524567 571.730713 383.874908 572.640625 C 385.22226 573.550781 386.428253 575.016602 387.489899 577.031982 C 390.698883 583.714355 395.264252 588.94043 401.185974 592.709717 C 407.107727 596.482178 414.415894 598.365479 423.110535 598.365479 C 434.740417 598.365479 444.165894 594.908447 451.392853 587.991455 C 458.616852 581.074463 463.964142 571.706787 467.428741 559.891113 C 470.79715 548.403076 472.5896 535.530518 472.809143 521.276123 C 470.923462 524.771973 468.649811 528.057861 465.997192 531.13623 C 460.186768 537.870117 452.938721 543.137939 444.250092 546.9375 C 435.561493 550.739746 425.742065 552.641113 414.791809 552.641113 C 401.068665 552.641113 388.903412 549.655518 378.296051 543.687744 C 367.68866 537.719971 359.381989 529.535645 353.373047 519.131592 C 347.361084 508.730713 344.356598 496.930176 344.356598 483.727295 C 344.356598 469.403809 347.791138 456.684082 354.660248 445.5625 C 361.526306 434.440674 370.951782 425.71875 382.930542 419.399414 C 394.909393 413.080322 408.533264 409.920654 423.799194 409.920654 C 439.738861 409.920654 453.600372 413.4646 465.383698 420.555908 C 477.166992 427.646729 486.472137 437.068604 493.296082 448.818359 C 498.835907 458.272949 502.865906 468.634766 505.386169 479.897705 C 507.903442 491.160645 509.163574 503.498535 509.163574 516.917969 C 509.163574 540.302734 505.704987 560.3479 498.790802 577.059082 C 491.876556 593.76709 481.981964 606.579834 469.103943 615.493896 Z M 402.139343 517.644775 C 408.515198 521.177002 415.78125 522.942871 423.940582 522.942871 C 431.862274 522.942871 439.002045 521.177002 445.362885 517.644775 C 451.720703 514.113037 456.773254 509.304443 460.517548 503.213379 C 464.264862 497.125488 466.135559 490.244629 466.135559 482.567627 C 466.135559 474.560791 464.264862 467.343262 460.517548 460.922119 C 456.773254 454.500732 451.738739 449.439941 445.41098 445.742676 C 439.086243 442.04541 431.994598 440.195313 424.14209 440.195313 C 416.250458 440.195313 409.098633 442.027344 402.689697 445.69165 C 396.283813 449.355713 391.174072 454.33252 387.360565 460.621582 C 383.55011 466.910889 381.643372 473.99292 381.643372 481.86792 C 381.643372 489.809082 383.465881 496.876221 387.110962 503.063232 C 390.756012 509.253174 395.766479 514.113037 402.139343 517.644775 Z"/>
                <path id="path7" fill="#ffffff" fill-opacity="0.8" fill-rule="evenodd" stroke="none" d="M 566.64856 482.168457 C 562.537354 486.273926 557.544922 488.325195 551.671326 488.325195 C 545.698486 488.325195 540.657898 486.273926 536.543701 482.168457 C 532.432434 478.05957 530.378357 473.025879 530.378357 467.061035 C 530.378357 461.195313 532.432434 456.209473 536.543701 452.104004 C 540.657898 447.998047 545.698486 445.943848 551.671326 445.943848 C 557.544922 445.943848 562.537354 447.998047 566.64856 452.104004 C 570.759827 456.209473 572.816956 461.195313 572.816956 467.061035 C 572.816956 473.025879 570.759827 478.05957 566.64856 482.168457 Z M 566.64856 588.051514 C 562.537354 592.157227 557.544922 594.208496 551.671326 594.208496 C 545.698486 594.208496 540.657898 592.157227 536.543701 588.051514 C 532.432434 583.942871 530.378357 578.957031 530.378357 573.091309 C 530.378357 567.225586 532.432434 562.23999 536.543701 558.134277 C 540.657898 554.025391 545.698486 551.974121 551.671326 551.974121 C 557.544922 551.974121 562.537354 554.025391 566.64856 558.134277 C 570.759827 562.23999 572.816956 567.225586 572.816956 573.091309 C 572.816956 578.957031 570.759827 583.942871 566.64856 588.051514 Z"/>
                <path id="path8" fill="#ffffff" fill-rule="evenodd" stroke="none" style="mix-blend-mode:color-dodge" d="M 566.64856 482.168457 C 562.537354 486.273926 557.544922 488.325195 551.671326 488.325195 C 545.698486 488.325195 540.657898 486.273926 536.543701 482.168457 C 532.432434 478.05957 530.378357 473.025879 530.378357 467.061035 C 530.378357 461.195313 532.432434 456.209473 536.543701 452.104004 C 540.657898 447.998047 545.698486 445.943848 551.671326 445.943848 C 557.544922 445.943848 562.537354 447.998047 566.64856 452.104004 C 570.759827 456.209473 572.816956 461.195313 572.816956 467.061035 C 572.816956 473.025879 570.759827 478.05957 566.64856 482.168457 Z M 566.64856 588.051514 C 562.537354 592.157227 557.544922 594.208496 551.671326 594.208496 C 545.698486 594.208496 540.657898 592.157227 536.543701 588.051514 C 532.432434 583.942871 530.378357 578.957031 530.378357 573.091309 C 530.378357 567.225586 532.432434 562.23999 536.543701 558.134277 C 540.657898 554.025391 545.698486 551.974121 551.671326 551.974121 C 557.544922 551.974121 562.537354 554.025391 566.64856 558.134277 C 570.759827 562.23999 572.816956 567.225586 572.816956 573.091309 C 572.816956 578.957031 570.759827 583.942871 566.64856 588.051514 Z"/>
                <path id="path9" fill="#ffffff" fill-opacity="0.8" fill-rule="evenodd" stroke="none" d="M 726.760864 625.152832 L 705.377686 625.152832 C 700.472473 625.152832 698.018372 622.702148 698.018372 617.803467 L 698.018372 584.468506 L 599.616577 584.468506 C 594.705383 584.468506 592.251221 582.017578 592.251221 577.118896 L 592.251221 557.894043 C 592.251221 555.734375 592.455811 553.887451 592.858765 552.352783 C 593.264771 550.817871 594.082825 549.018799 595.309875 546.958496 C 601.718811 535.866699 608.708191 524.036133 616.284058 511.466797 C 623.856873 498.900635 632.503357 485.099609 642.220581 470.064453 C 651.937744 455.029297 663.197754 438.234131 676.000549 419.678955 C 678.785522 415.582031 682.277222 413.533691 686.472656 413.533691 L 726.760864 413.533691 C 731.669067 413.533691 734.123169 415.984619 734.123169 420.88623 L 734.123169 553.743164 L 755.226685 553.743164 C 760.131836 553.743164 762.585999 556.194092 762.585999 561.092529 L 762.585999 577.118896 C 762.585999 582.017578 760.198059 584.468506 755.425171 584.468506 L 734.123169 584.468506 L 734.123169 617.803467 C 734.123169 622.702148 731.669067 625.152832 726.760864 625.152832 Z M 646.623535 519.63916 C 639.537903 531.118408 632.876343 542.486328 626.644836 553.743164 L 698.577759 553.743164 L 698.577759 440.489502 C 688.024475 455.870117 678.499817 470.037354 670.003723 482.991211 C 661.504517 495.942139 653.712158 508.159912 646.623535 519.63916 Z"/>
                <path id="path10" fill="#ffffff" fill-rule="evenodd" stroke="none" style="mix-blend-mode:color-dodge" d="M 726.760864 625.152832 L 705.377686 625.152832 C 700.472473 625.152832 698.018372 622.702148 698.018372 617.803467 L 698.018372 584.468506 L 599.616577 584.468506 C 594.705383 584.468506 592.251221 582.017578 592.251221 577.118896 L 592.251221 557.894043 C 592.251221 555.734375 592.455811 553.887451 592.858765 552.352783 C 593.264771 550.817871 594.082825 549.018799 595.309875 546.958496 C 601.718811 535.866699 608.708191 524.036133 616.284058 511.466797 C 623.856873 498.900635 632.503357 485.099609 642.220581 470.064453 C 651.937744 455.029297 663.197754 438.234131 676.000549 419.678955 C 678.785522 415.582031 682.277222 413.533691 686.472656 413.533691 L 726.760864 413.533691 C 731.669067 413.533691 734.123169 415.984619 734.123169 420.88623 L 734.123169 553.743164 L 755.226685 553.743164 C 760.131836 553.743164 762.585999 556.194092 762.585999 561.092529 L 762.585999 577.118896 C 762.585999 582.017578 760.198059 584.468506 755.425171 584.468506 L 734.123169 584.468506 L 734.123169 617.803467 C 734.123169 622.702148 731.669067 625.152832 726.760864 625.152832 Z M 646.623535 519.63916 C 639.537903 531.118408 632.876343 542.486328 626.644836 553.743164 L 698.577759 553.743164 L 698.577759 440.489502 C 688.024475 455.870117 678.499817 470.037354 670.003723 482.991211 C 661.504517 495.942139 653.712158 508.159912 646.623535 519.63916 Z"/>
                <path id="path11" fill="#ffffff" fill-opacity="0.8" stroke="none" d="M 829.448364 625.152832 L 851.905151 625.152832 C 856.813416 625.152832 859.267456 622.702148 859.267456 617.800537 L 859.267456 420.883301 C 859.267456 415.984619 856.813416 413.533691 851.905151 413.533691 L 828.69043 413.533691 C 825.872375 413.533691 823.598755 413.831055 821.866394 414.428955 C 820.137146 415.026611 818.251404 416.020508 816.215332 417.411133 C 809.183899 422.315918 801.74646 427.517822 793.896851 433.01709 C 786.050293 438.519531 778.576782 443.754395 771.479065 448.725098 C 769.470093 450.085693 768.143799 451.500244 767.497192 452.968994 C 766.847595 454.440674 766.525757 456.468018 766.525757 459.053955 L 766.525757 478.365967 C 766.525757 480.624512 767.455139 482.120117 769.316711 482.850098 C 771.181335 483.577148 773.01593 483.261475 774.829468 481.904053 C 782.943604 476.308594 791.012756 470.695068 799.033691 465.066895 C 807.051575 459.438232 814.735779 454.092285 822.088989 449.031494 L 822.088989 617.800537 C 822.088989 622.702148 824.543091 625.152832 829.448364 625.152832 Z"/>
                <path id="path12" fill="#ffffff" stroke="none" style="mix-blend-mode:color-dodge" d="M 829.448364 625.152832 L 851.905151 625.152832 C 856.813416 625.152832 859.267456 622.702148 859.267456 617.800537 L 859.267456 420.883301 C 859.267456 415.984619 856.813416 413.533691 851.905151 413.533691 L 828.69043 413.533691 C 825.872375 413.533691 823.598755 413.831055 821.866394 414.428955 C 820.137146 415.026611 818.251404 416.020508 816.215332 417.411133 C 809.183899 422.315918 801.74646 427.517822 793.896851 433.01709 C 786.050293 438.519531 778.576782 443.754395 771.479065 448.725098 C 769.470093 450.085693 768.143799 451.500244 767.497192 452.968994 C 766.847595 454.440674 766.525757 456.468018 766.525757 459.053955 L 766.525757 478.365967 C 766.525757 480.624512 767.455139 482.120117 769.316711 482.850098 C 771.181335 483.577148 773.01593 483.261475 774.829468 481.904053 C 782.943604 476.308594 791.012756 470.695068 799.033691 465.066895 C 807.051575 459.438232 814.735779 454.092285 822.088989 449.031494 L 822.088989 617.800537 C 822.088989 622.702148 824.543091 625.152832 829.448364 625.152832 Z"/>
            </g>
            <path id="path13" fill="#ffffff" stroke="none" opacity="0.35" d="M 922.895752 183.059082 L 1060.237427 183.059082 C 1062.175293 183.059082 1063.746216 184.62793 1063.746216 186.563232 L 1063.746216 186.563232 C 1063.746216 188.498291 1062.175293 190.067139 1060.237427 190.067139 L 922.895752 190.067139 C 920.957886 190.067139 919.387085 188.498291 919.387085 186.563232 L 919.387085 186.563232 C 919.387085 184.62793 920.957886 183.059082 922.895752 183.059082 Z"/>
            <path id="path14" fill="none" stroke="#ffffff" stroke-width="3.005459" opacity="0.35" d="M 1040.588501 120.887939 L 1089.911255 120.887939 C 1096.223022 120.887939 1101.339722 125.997803 1101.339722 132.301025 L 1101.339722 145.516113 C 1101.339722 151.819336 1096.223022 156.929199 1089.911255 156.929199 L 1040.588501 156.929199 C 1034.276733 156.929199 1029.160156 151.819336 1029.160156 145.516113 L 1029.160156 132.301025 C 1029.160156 125.997803 1034.276733 120.887939 1040.588501 120.887939 Z"/>
            <path id="path15" fill="#ffffff" stroke="none" opacity="0.4" d="M 1105.550171 133.402344 L 1105.550171 145.41626 C 1107.971191 144.398682 1109.544067 142.031494 1109.544067 139.409424 C 1109.544067 136.786621 1107.971191 134.419922 1105.550171 133.402344 Z"/>
            <path id="path16" fill="#ffffff" stroke="none" d="M 1040.588501 125.393066 L 1088.708252 125.393066 C 1092.860718 125.393066 1096.226929 128.754883 1096.226929 132.901611 L 1096.226929 144.915283 C 1096.226929 149.062256 1092.860718 152.424072 1088.708252 152.424072 L 1040.588501 152.424072 C 1036.436035 152.424072 1033.069824 149.062256 1033.069824 144.915283 L 1033.069824 132.901611 C 1033.069824 128.754883 1036.436035 125.393066 1040.588501 125.393066 Z"/>
            <path id="path17" fill="#ffffff" fill-rule="evenodd" stroke="none" d="M 979.750183 128.458496 C 987.229797 128.45874 994.423645 131.176758 999.846191 136.05127 C 1000.255188 136.42749 1000.907837 136.422607 1001.3078 136.040283 L 1005.211548 132.316162 C 1005.412964 132.12207 1005.527344 131.859619 1005.527344 131.586182 C 1005.524292 131.313232 1005.407043 131.052002 1005.202515 130.860352 C 990.97406 117.964355 968.526245 117.964355 954.297913 130.860352 C 954.090393 131.051514 953.976013 131.312744 953.973083 131.586182 C 953.970093 131.859375 954.084351 132.12207 954.288818 132.316162 L 958.192566 136.040283 C 958.592529 136.42334 959.245178 136.427979 959.654175 136.05127 C 965.07666 131.176514 972.270569 128.458496 979.750183 128.458496 Z M 979.744202 140.898926 C 983.828369 140.898682 987.765137 142.407227 990.790588 145.131348 C 991.199707 145.518066 991.843262 145.509766 992.243225 145.112549 L 996.113892 141.223633 C 996.31842 141.019287 996.432678 140.742676 996.429626 140.455322 C 996.426697 140.167725 996.306396 139.893066 996.098877 139.693359 C 986.883972 131.171631 972.613464 131.171631 963.401489 139.693359 C 963.19104 139.893066 963.07373 140.167969 963.07074 140.455322 C 963.067688 140.743164 963.181946 141.019775 963.386414 141.223633 L 967.257141 145.112549 C 967.654053 145.509766 968.300659 145.518066 968.709717 145.131348 C 971.7323 142.40918 975.666016 140.900879 979.744202 140.898926 Z M 987.332031 149.133789 C 987.335083 149.444336 987.223816 149.743652 987.022278 149.961426 L 980.474976 157.19751 C 980.285522 157.410156 980.023865 157.529785 979.750183 157.529785 C 979.476501 157.529785 979.214844 157.410156 979.022339 157.19751 L 972.475037 149.961426 C 972.273621 149.743652 972.162292 149.444336 972.168335 149.133789 C 972.174377 148.823242 972.297668 148.528809 972.508179 148.320801 C 976.688538 144.447754 982.811829 144.447754 986.992188 148.320801 C 987.202698 148.529297 987.32605 148.823242 987.332031 149.133789 Z"/>
            <path id="path18" fill="#ffffff" fill-rule="evenodd" stroke="none" d="M 931.416992 124.266846 C 931.416992 122.400879 929.979309 120.887939 928.207947 120.887939 L 925.001953 120.887939 C 923.230591 120.887939 921.79303 122.400879 921.79303 124.266846 L 921.79303 153.550293 C 921.79303 155.416504 923.230591 156.929199 925.001953 156.929199 L 928.207947 156.929199 C 929.979309 156.929199 931.416992 155.416504 931.416992 153.550293 L 931.416992 124.266846 Z M 909.062317 128.096191 L 912.268372 128.096191 C 914.039734 128.096191 915.477295 129.645508 915.477295 131.556152 L 915.477295 153.469238 C 915.477295 155.380127 914.039734 156.929199 912.268372 156.929199 L 909.062317 156.929199 C 907.290955 156.929199 905.853394 155.380127 905.853394 153.469238 L 905.853394 131.556152 C 905.853394 129.645508 907.290955 128.096191 909.062317 128.096191 Z M 896.027954 135.905029 L 892.82196 135.905029 C 891.050598 135.905029 889.612915 137.473877 889.612915 139.409424 L 889.612915 153.425049 C 889.612915 155.360596 891.050598 156.929199 892.82196 156.929199 L 896.027954 156.929199 C 897.799316 156.929199 899.236877 155.360596 899.236877 153.425049 L 899.236877 139.409424 C 899.236877 137.473877 897.799316 135.905029 896.027954 135.905029 Z M 880.088257 143.113281 L 876.882263 143.113281 C 875.110901 143.113281 873.67334 144.659912 873.67334 146.567383 L 873.67334 153.475342 C 873.67334 155.382568 875.110901 156.929199 876.882263 156.929199 L 880.088257 156.929199 C 881.859619 156.929199 883.297302 155.382568 883.297302 153.475342 L 883.297302 146.567383 C 883.297302 144.659912 881.859619 143.113281 880.088257 143.113281 Z"/>
            <path id="path19" fill="#ffffff" stroke="none" d="M 433.997589 342.842041 L 433.997589 296.285645 L 463.140106 296.285645 L 463.140106 302.544922 L 441.266693 302.544922 L 441.266693 317.256836 L 461.296478 317.256836 L 461.296478 323.354736 L 441.266693 323.354736 L 441.266693 342.842041 L 433.997589 342.842041 Z M 469.482849 342.842041 L 469.482849 308.384277 L 476.493317 308.384277 L 476.493317 313.933838 L 476.848206 313.933838 C 477.431641 311.998047 478.454163 310.481689 479.918823 309.384766 C 481.383453 308.287842 483.181946 307.739258 485.31427 307.739258 C 485.8526 307.739258 486.357849 307.77124 486.833008 307.835938 C 487.326233 307.900635 487.726257 307.965088 488.026978 308.029541 L 488.026978 314.514893 C 487.596954 314.385498 487.07962 314.288818 486.475159 314.224121 C 485.894684 314.159668 485.269135 314.127686 484.601501 314.127686 C 482.965393 314.127686 481.533844 314.460938 480.306763 315.127686 C 479.100769 315.772949 478.162445 316.708496 477.494781 317.93457 C 476.827118 319.13916 476.493317 320.59082 476.493317 322.290039 L 476.493317 342.842041 L 469.482849 342.842041 Z M 493.112671 342.842041 L 493.112671 308.384277 L 500.123077 308.384277 L 500.123077 342.842041 L 493.112671 342.842041 Z M 496.634399 302.673828 C 495.47052 302.673828 494.468994 302.265137 493.629944 301.447998 C 492.808868 300.609131 492.399902 299.619385 492.399902 298.479736 C 492.399902 297.318115 492.808868 296.328613 493.629944 295.511475 C 494.468994 294.694092 495.47052 294.2854 496.634399 294.2854 C 497.816345 294.2854 498.820862 294.694092 499.638885 295.511475 C 500.45694 296.328613 500.865906 297.318115 500.865906 298.479736 C 500.865906 299.619385 500.45694 300.609131 499.638885 301.447998 C 498.820862 302.265137 497.816345 302.673828 496.634399 302.673828 Z M 520.874695 343.487549 C 517.969482 343.487549 515.437195 342.755859 513.283875 341.293213 C 511.130463 339.830566 509.461304 337.765625 508.276367 335.098633 C 507.112488 332.431641 506.532013 329.269531 506.532013 325.613281 L 506.532013 325.581055 C 506.532013 321.924561 507.112488 318.762451 508.276367 316.095459 C 509.461304 313.428467 511.130463 311.374512 513.283875 309.933105 C 515.437195 308.470703 517.957458 307.739258 520.844604 307.739258 C 522.459656 307.739258 523.954346 307.99707 525.334778 308.513672 C 526.733276 309.029785 527.960327 309.76123 529.01593 310.70752 C 530.092651 311.632324 530.95575 312.73999 531.602356 314.030518 L 531.957275 314.030518 L 531.957275 295.220947 L 538.967712 295.220947 L 538.967712 342.842041 L 531.957275 342.842041 L 531.957275 337.195801 L 531.602356 337.195801 C 530.934692 338.508057 530.071594 339.626465 529.01593 340.55127 C 527.960327 341.47583 526.7453 342.196777 525.367859 342.712891 C 524.008484 343.229492 522.513794 343.487549 520.874695 343.487549 Z M 522.814514 337.454102 C 524.667114 337.454102 526.282166 336.980713 527.659607 336.034424 C 529.040039 335.066406 530.104675 333.700684 530.859558 331.936768 C 531.635437 330.151611 532.020447 328.054443 532.020447 325.645508 L 532.020447 325.581055 C 532.020447 323.171875 531.635437 321.085693 530.859558 319.321777 C 530.083618 317.536621 529.006958 316.159912 527.626526 315.191895 C 526.270142 314.224121 524.667114 313.73999 522.814514 313.73999 C 520.940857 313.73999 519.313843 314.224121 517.936401 315.191895 C 516.555969 316.138428 515.503357 317.493408 514.769531 319.257568 C 514.038696 321.020996 513.671814 323.128906 513.671814 325.581055 L 513.671814 325.613281 C 513.671814 328.065186 514.038696 330.184082 514.769531 331.969238 C 515.503357 333.73291 516.546936 335.087891 517.90332 336.034424 C 519.280701 336.980713 520.9198 337.454102 522.814514 337.454102 Z M 556.847229 343.45459 C 554.606628 343.45459 552.624695 343.025146 550.901428 342.164307 C 549.178101 341.304199 547.821716 340.099609 546.829285 338.550781 C 545.839844 336.980713 545.343567 335.16333 545.343567 333.098633 L 545.343567 333.033936 C 545.343567 331.011963 545.851868 329.269531 546.862366 327.806885 C 547.875916 326.344727 549.340515 325.193848 551.256287 324.35498 C 553.172058 323.494629 555.499817 322.989258 558.233643 322.838379 L 571.126709 322.064209 L 571.126709 327.000488 L 559.171997 327.74292 C 556.931396 327.871582 555.241211 328.376953 554.098389 329.258789 C 552.958496 330.119385 552.387085 331.30249 552.387085 332.807861 L 552.387085 332.872803 C 552.387085 334.421143 552.967529 335.636475 554.13147 336.518311 C 555.316406 337.400391 556.856201 337.841309 558.750916 337.841309 C 560.432068 337.841309 561.938843 337.49707 563.27417 336.808594 C 564.609497 336.120361 565.656067 335.195557 566.407959 334.033936 C 567.183899 332.851074 567.571899 331.517334 567.571899 330.033447 L 567.571899 319.483398 C 567.571899 317.590332 566.97937 316.127686 565.794434 315.095215 C 564.609497 314.04126 562.88623 313.514648 560.624573 313.514648 C 558.645691 313.514648 557.039673 313.901855 555.812622 314.676025 C 554.585571 315.450195 553.797607 316.482666 553.454773 317.773193 L 553.388611 317.999023 L 546.733032 317.999023 L 546.766113 317.676514 C 546.982605 315.740723 547.68042 314.030518 548.865356 312.546631 C 550.07135 311.041016 551.68634 309.85791 553.713379 308.997314 C 555.758484 308.137207 558.149475 307.707275 560.88324 307.707275 C 563.74939 307.707275 566.194397 308.180176 568.218445 309.126709 C 570.263611 310.051514 571.836487 311.374512 572.934204 313.094971 C 574.031921 314.794434 574.582275 316.82666 574.582275 319.192871 L 574.582275 342.842041 L 567.571899 342.842041 L 567.571899 337.679688 L 567.250061 337.679688 C 566.579407 338.862793 565.719299 339.895264 564.663635 340.7771 C 563.629028 341.637451 562.444092 342.304199 561.108765 342.777344 C 559.797485 343.229492 558.375 343.45459 556.847229 343.45459 Z M 585.385193 354.651367 C 584.825806 354.651367 584.242371 354.618408 583.640869 354.552246 C 583.060364 354.510254 582.552124 354.456299 582.12207 354.393066 L 582.12207 348.908936 C 582.422852 348.950928 582.77771 348.99292 583.186707 349.035156 C 583.598755 349.080078 584.016785 349.101074 584.446838 349.101074 C 586.085938 349.101074 587.400208 348.767822 588.389648 348.10083 C 589.403198 347.434082 590.176086 346.262695 590.714417 344.583984 L 591.264832 342.875 L 578.696533 308.384277 L 586.320496 308.384277 L 595.755005 338.680176 L 594.076843 336.16333 L 596.239197 336.16333 L 594.591064 338.680176 L 604.025574 308.384277 L 611.390869 308.384277 L 598.566956 344.292725 C 597.661743 346.854492 596.618164 348.88501 595.433167 350.392578 C 594.269287 351.918213 592.879822 353.005615 591.264832 353.651367 C 589.64978 354.318115 587.688904 354.651367 585.385193 354.651367 Z M 631.414673 342.842041 L 631.414673 337.873291 L 647.405457 321.548096 C 649.474609 319.440186 651.068604 317.697998 652.187317 316.321289 C 653.309143 314.944824 654.082092 313.708008 654.515137 312.611084 C 654.945251 311.513916 655.161743 310.352539 655.161743 309.126709 L 655.161743 309.062012 C 655.161743 307.556396 654.815918 306.2229 654.127197 305.061279 C 653.459534 303.899902 652.512146 302.985596 651.282104 302.319092 C 650.076111 301.6521 648.644531 301.318848 646.987427 301.318848 C 645.222046 301.318848 643.649109 301.684326 642.268677 302.415527 C 640.912292 303.146973 639.847656 304.147217 639.071716 305.416504 C 638.316833 306.685303 637.928894 308.137207 637.907837 309.771973 L 637.907837 309.933105 L 631.059814 309.933105 L 631.026733 309.771973 C 631.026733 306.97583 631.727478 304.491211 633.125916 302.319092 C 634.527405 300.125 636.443176 298.415039 638.876221 297.189209 C 641.312317 295.963135 644.067139 295.350098 647.146851 295.350098 C 650.100159 295.350098 652.716675 295.920166 654.999329 297.059814 C 657.303101 298.200195 659.101563 299.759277 660.394775 301.738525 C 661.709045 303.717041 662.364685 305.975586 662.364685 308.513672 L 662.364685 308.610107 C 662.364685 310.352539 662.042908 312.041016 661.396301 313.676025 C 660.749634 315.288818 659.639893 317.074219 658.066956 319.031738 C 656.49707 320.967285 654.310669 323.333252 651.510681 326.12915 L 639.038635 338.389648 L 641.237122 334.388672 L 641.237122 338.389648 L 639.071716 336.711914 L 663.107483 336.711914 L 663.107483 342.842041 L 631.414673 342.842041 Z M 686.135803 342.842041 L 686.135803 296.285645 L 694.535706 296.285645 L 709.491882 333.388428 L 709.849792 333.388428 L 724.80603 296.285645 L 733.205933 296.285645 L 733.205933 342.842041 L 726.583435 342.842041 L 726.583435 308.610107 L 723.127808 308.610107 L 730.685608 297.576172 L 712.336975 342.842041 L 707.0047 342.842041 L 688.656067 297.576172 L 696.213867 308.610107 L 692.758301 308.610107 L 692.758301 342.842041 L 686.135803 342.842041 Z M 751.214661 343.45459 C 748.974121 343.45459 746.992188 343.025146 745.26886 342.164307 C 743.545593 341.304199 742.18927 340.099609 741.199768 338.550781 C 740.207275 336.980713 739.71106 335.16333 739.71106 333.098633 L 739.71106 333.033936 C 739.71106 331.011963 740.21936 329.269531 741.229858 327.806885 C 742.243347 326.344727 743.708008 325.193848 745.623779 324.35498 C 747.542603 323.494629 749.867371 322.989258 752.604187 322.838379 L 765.494202 322.064209 L 765.494202 327.000488 L 753.539429 327.74292 C 751.298889 327.871582 749.608704 328.376953 748.468872 329.258789 C 747.325989 330.119385 746.754578 331.30249 746.754578 332.807861 L 746.754578 332.872803 C 746.754578 334.421143 747.338013 335.636475 748.498901 336.518311 C 749.683899 337.400391 751.223755 337.841309 753.118408 337.841309 C 754.799622 337.841309 756.306396 337.49707 757.641724 336.808594 C 758.977051 336.120361 760.023621 335.195557 760.775452 334.033936 C 761.551392 332.851074 761.939392 331.517334 761.939392 330.033447 L 761.939392 319.483398 C 761.939392 317.590332 761.346924 316.127686 760.161987 315.095215 C 758.977051 314.04126 757.253723 313.514648 754.992065 313.514648 C 753.013184 313.514648 751.407166 313.901855 750.180115 314.676025 C 748.953064 315.450195 748.1651 316.482666 747.822266 317.773193 L 747.756104 317.999023 L 741.100525 317.999023 L 741.133606 317.676514 C 741.350159 315.740723 742.047852 314.030518 743.232849 312.546631 C 744.438843 311.041016 746.053833 309.85791 748.080933 308.997314 C 750.125977 308.137207 752.516907 307.707275 755.250732 307.707275 C 758.116821 307.707275 760.561951 308.180176 762.585999 309.126709 C 764.631042 310.051514 766.203979 311.374512 767.301697 313.094971 C 768.399475 314.794434 768.949768 316.82666 768.949768 319.192871 L 768.949768 342.842041 L 761.939392 342.842041 L 761.939392 337.679688 L 761.617554 337.679688 C 760.94989 338.862793 760.086731 339.895264 759.031128 340.7771 C 757.999573 341.637451 756.814636 342.304199 755.479309 342.777344 C 754.165039 343.229492 752.742493 343.45459 751.214661 343.45459 Z M 779.752686 354.651367 C 779.193237 354.651367 778.612854 354.618408 778.008362 354.552246 C 777.427856 354.510254 776.919678 354.456299 776.489563 354.393066 L 776.489563 348.908936 C 776.790344 348.950928 777.148193 348.99292 777.55719 349.035156 C 777.966248 349.080078 778.384338 349.101074 778.817322 349.101074 C 780.45343 349.101074 781.7677 348.767822 782.757141 348.10083 C 783.770691 347.434082 784.54657 346.262695 785.084961 344.583984 L 785.632324 342.875 L 773.064026 308.384277 L 780.69104 308.384277 L 790.122437 338.680176 L 788.444336 336.16333 L 790.606689 336.16333 L 788.961609 338.680176 L 798.393005 308.384277 L 805.761414 308.384277 L 792.934448 344.292725 C 792.029236 346.854492 790.985657 348.88501 789.800659 350.392578 C 788.63678 351.918213 787.247314 353.005615 785.632324 353.651367 C 784.017273 354.318115 782.056396 354.651367 779.752686 354.651367 Z"/>
        </g>
    </g>
</svg>
