<?xml version="1.0" encoding="UTF-8"?>
<!-- Generated by Pixelmator Pro 3.6.18 -->
<svg width="1206" height="1355" viewBox="0 0 1206 1355" xmlns="http://www.w3.org/2000/svg">
    <path id="display-mask" fill="#f6f6f6" fill-rule="evenodd" stroke="none" d="M 0 1355 L 1206 1355 L 1206 354.199951 C 1206 240.028076 1206 182.941895 1182.029297 140.13916 C 1165.088135 109.888428 1140.11145 84.911865 1109.86084 67.970703 C 1067.057983 44 1009.971985 44 895.800049 44 L 310.200012 44 C 196.028061 44 138.942078 44 96.139221 67.970703 C 65.888565 84.911865 40.911949 109.888428 23.970766 140.13916 C 1.5e-05 182.941895 1.5e-05 240.028076 1.5e-05 354.199951 L 0 1355 Z M 470 195 C 440.176636 195 416 170.823486 416 141 C 416 111.176514 440.176636 87 470 87 L 736 87 C 765.823364 87 790 111.176514 790 141 C 790 170.823486 765.823364 195 736 195 L 470 195 Z"/>
</svg>
