<?xml version="1.0" encoding="UTF-8"?>
<!-- Generated by Pixelmator Pro 3.6.18 -->
<svg width="1206" height="2622" viewBox="0 0 1206 2622" xmlns="http://www.w3.org/2000/svg">
    <g id="iPhone-16-Pro">
        <g id="Lock-Screen-Overlay" style="isolation:isolate">
            <path id="Bounding-Box" fill="none" stroke="none" d="M -0 0 L 1206 0 L 1206 2622 L -0 2622 Z"/>
            <path id="Path" fill="#ffffff" stroke="none" d="M 812.019958 2584.457031 L 393.980042 2584.457031 C 389.827606 2584.457031 386.461334 2587.818848 386.461334 2591.965576 L 386.461334 2591.965576 C 386.461334 2596.112549 389.827606 2599.474121 393.980042 2599.474121 L 812.019958 2599.474121 C 816.172424 2599.474121 819.538635 2596.112549 819.538635 2591.965576 L 819.538635 2591.965576 C 819.538635 2587.818848 816.172424 2584.457031 812.019958 2584.457031 Z"/>
            <path id="path1" fill="#000000" fill-opacity="0.26" stroke="none" d="M 993.972595 2323.158203 L 993.972595 2323.158203 C 1035.497192 2323.158203 1069.159546 2356.775146 1069.159546 2398.243896 L 1069.159546 2398.243896 C 1069.159546 2439.712891 1035.497192 2473.329834 993.972595 2473.329834 L 993.972595 2473.329834 C 952.447876 2473.329834 918.785522 2439.712891 918.785522 2398.243896 L 918.785522 2398.243896 C 918.785522 2356.775146 952.447876 2323.158203 993.972595 2323.158203 Z"/>
            <path id="path2" fill="#ffffff" stroke="none" d="M 977.160767 2364.869873 L 977.160767 2363.761475 C 977.160767 2359.220459 979.38031 2356.949707 983.822327 2356.949707 L 1004.095764 2356.949707 C 1008.537781 2356.949707 1010.757324 2359.220459 1010.757324 2363.761475 L 1010.757324 2364.869873 L 977.160767 2364.869873 Z M 990.775635 2437.462891 C 988.607239 2437.462891 986.959106 2436.880127 985.831299 2435.720947 C 984.703491 2434.558594 984.138123 2432.867676 984.138123 2430.650879 L 984.138123 2391.39917 C 984.138123 2389.533936 983.936584 2387.939209 983.53064 2386.620605 C 983.142578 2385.28418 982.616333 2384.10376 981.945679 2383.082764 L 979.963745 2380.021973 C 979.133667 2378.71875 978.45697 2377.451172 977.927673 2376.219727 C 977.416382 2374.970215 977.160767 2373.570801 977.160767 2372.023926 L 977.160767 2368.855469 L 1010.757324 2368.855469 L 1010.757324 2372.023926 C 1010.757324 2373.570801 1010.492676 2374.970215 1009.963318 2376.219727 C 1009.437012 2377.451172 1008.757324 2378.71875 1007.930237 2380.021973 L 1005.972412 2383.082764 C 1005.304749 2384.10376 1004.766357 2385.28418 1004.360413 2386.620605 C 1003.972473 2387.939209 1003.779907 2389.533936 1003.779907 2391.39917 L 1003.779907 2430.650879 C 1003.779907 2432.867676 1003.205566 2434.558594 1002.059692 2435.720947 C 1000.931885 2436.880127 999.295776 2437.462891 997.145447 2437.462891 L 990.775635 2437.462891 Z M 987.918518 2394.459717 L 987.918518 2404.809326 C 987.918518 2406.497314 988.501953 2407.924072 989.662781 2409.083496 C 990.826782 2410.227539 992.264343 2410.801514 993.972595 2410.801514 C 995.118469 2410.801514 996.140991 2410.537109 997.040161 2410.008301 C 997.954468 2409.47998 998.67627 2408.768066 999.205566 2407.870117 C 999.734863 2406.954102 999.999573 2405.935791 999.999573 2404.809326 L 999.999573 2394.459717 C 999.999573 2393.333252 999.734863 2392.321289 999.205566 2391.423096 C 998.67627 2390.51001 997.954468 2389.789307 997.040161 2389.260742 C 996.140991 2388.714111 995.118469 2388.440918 993.972595 2388.440918 C 992.264343 2388.440918 990.826782 2389.023438 989.662781 2390.182617 C 988.501953 2391.345215 987.918518 2392.771729 987.918518 2394.459717 Z M 993.972595 2408.689941 C 992.862854 2408.689941 991.92749 2408.317627 991.169556 2407.578613 C 990.429749 2406.839844 990.059875 2405.917725 990.059875 2404.809326 C 990.059875 2403.734375 990.438843 2402.818359 991.196655 2402.061279 C 991.95459 2401.307617 992.880859 2400.928955 993.972595 2400.928955 C 995.046204 2400.928955 995.963501 2401.307617 996.721436 2402.061279 C 997.497314 2402.818359 997.885315 2403.734375 997.885315 2404.809326 C 997.885315 2405.917725 997.515381 2406.839844 996.775574 2407.578613 C 996.035706 2408.317627 995.100403 2408.689941 993.972595 2408.689941 Z"/>
            <path id="path3" fill="#000000" fill-opacity="0.26" stroke="none" d="M 212.027435 2323.158203 L 212.027435 2323.158203 C 253.552094 2323.158203 287.214478 2356.775146 287.214478 2398.243896 L 287.214478 2398.243896 C 287.214478 2439.712891 253.552094 2473.329834 212.027435 2473.329834 L 212.027435 2473.329834 C 170.502777 2473.329834 136.840393 2439.712891 136.840393 2398.243896 L 136.840393 2398.243896 C 136.840393 2356.775146 170.502777 2323.158203 212.027435 2323.158203 Z"/>
            <path id="path4" fill="#ffffff" stroke="none" d="M 240.41655 2389.735352 C 241.596985 2389.735352 242.610199 2389.320801 243.456223 2388.494873 C 244.30191 2387.650879 244.725067 2386.629639 244.725067 2385.431396 C 244.725067 2384.271973 244.30191 2383.268799 243.456223 2382.421875 C 242.610199 2381.577881 241.596985 2381.157471 240.41655 2381.157471 C 239.235809 2381.157471 238.222595 2381.577881 237.376602 2382.421875 C 236.530884 2383.268799 236.107727 2384.271973 236.107727 2385.431396 C 236.107727 2386.629639 236.530884 2387.650879 237.376602 2388.494873 C 238.222595 2389.320801 239.235809 2389.735352 240.41655 2389.735352 Z M 181.047974 2428.698975 C 177.506058 2428.698975 174.818573 2427.791748 172.986115 2425.977783 C 171.170807 2424.184814 170.263443 2421.535645 170.263443 2418.033691 L 170.263443 2382.265625 C 170.263443 2378.763672 171.170807 2376.114746 172.986115 2374.318604 C 174.818573 2372.507568 177.506058 2371.600586 181.047974 2371.600586 L 190.088165 2371.600586 C 190.986786 2371.600586 191.709198 2371.537354 192.25563 2371.414307 C 192.819534 2371.29126 193.330536 2371.071777 193.788559 2370.756592 C 194.246902 2370.438232 194.740433 2369.990723 195.268829 2369.407959 L 198.044449 2366.398438 C 198.643524 2365.767822 199.260361 2365.248047 199.894638 2364.842773 C 200.529236 2364.437256 201.242905 2364.140137 202.03566 2363.944824 C 202.846512 2363.752441 203.824524 2363.65332 204.969772 2363.65332 L 218.741333 2363.65332 C 219.886871 2363.65332 220.864914 2363.752441 221.67543 2363.944824 C 222.485947 2364.140137 223.199615 2364.437256 223.816452 2364.842773 C 224.451035 2365.248047 225.067566 2365.767822 225.666962 2366.398438 L 228.415802 2369.407959 C 228.979706 2370.008789 229.481964 2370.465088 229.922562 2370.780518 C 230.380585 2371.080811 230.882843 2371.29126 231.429306 2371.414307 C 231.99321 2371.537354 232.724304 2371.600586 233.62326 2371.600586 L 243.006882 2371.600586 C 246.531372 2371.600586 249.201096 2372.507568 251.016113 2374.318604 C 252.848572 2376.114746 253.764954 2378.763672 253.764954 2382.265625 L 253.764954 2418.033691 C 253.764954 2421.535645 252.848572 2424.184814 251.016113 2425.977783 C 249.201096 2427.791748 246.531372 2428.698975 243.006882 2428.698975 L 181.047974 2428.698975 Z M 212.027435 2418.480957 C 214.600327 2418.480957 216.996689 2418.006592 219.217117 2417.057373 C 221.455292 2416.105469 223.420074 2414.786865 225.111786 2413.095947 C 226.820923 2411.390137 228.151428 2409.419922 229.102997 2407.185059 C 230.072327 2404.932617 230.556824 2402.520996 230.556824 2399.949951 C 230.556824 2397.38208 230.072327 2394.979248 229.102997 2392.744629 C 228.151428 2390.492188 226.829941 2388.521973 225.138245 2386.831055 C 223.446533 2385.125 221.48175 2383.794434 219.243576 2382.845215 C 217.005707 2381.89624 214.600327 2381.418701 212.027435 2381.418701 C 209.454529 2381.418701 207.049164 2381.89624 204.811279 2382.845215 C 202.573105 2383.794434 200.608337 2385.125 198.916626 2386.831055 C 197.224915 2388.521973 195.903427 2390.492188 194.951874 2392.744629 C 194.000275 2394.979248 193.524506 2397.38208 193.524506 2399.949951 C 193.524506 2402.520996 194.000275 2404.932617 194.951874 2407.185059 C 195.903427 2409.419922 197.224915 2411.390137 198.916626 2413.095947 C 200.608337 2414.786865 202.573105 2416.105469 204.811279 2417.057373 C 207.049164 2418.006592 209.454529 2418.480957 212.027435 2418.480957 Z M 212.027435 2413.123047 C 210.212418 2413.123047 208.502975 2412.789795 206.899368 2412.119873 C 205.313538 2411.435059 203.912659 2410.491943 202.696716 2409.296631 C 201.498245 2408.080322 200.555405 2406.683594 199.868179 2405.097656 C 199.198715 2403.49707 198.863693 2401.781982 198.863693 2399.949951 C 198.863693 2398.12085 199.198715 2396.414795 199.868179 2394.829102 C 200.555405 2393.228271 201.498245 2391.828613 202.696716 2390.633301 C 203.912659 2389.419922 205.313538 2388.476807 206.899368 2387.807129 C 208.502975 2387.122314 210.212418 2386.779785 212.027435 2386.779785 C 213.842453 2386.779785 215.542877 2387.122314 217.129013 2387.807129 C 218.732605 2388.476807 220.133484 2389.419922 221.331985 2390.633301 C 222.547607 2391.828613 223.490448 2393.228271 224.160217 2394.829102 C 224.829666 2396.414795 225.164719 2398.12085 225.164719 2399.949951 C 225.164719 2401.781982 224.829666 2403.49707 224.160217 2405.097656 C 223.490448 2406.683594 222.547607 2408.080322 221.331985 2409.296631 C 220.133484 2410.491943 218.732605 2411.435059 217.129013 2412.119873 C 215.542877 2412.789795 213.842453 2413.123047 212.027435 2413.123047 Z"/>
            <g id="Group">
                <path id="path5" fill="#ffffff" fill-opacity="0.8" fill-rule="evenodd" stroke="none" d="M 469.103943 571.493896 C 456.228882 580.408081 440.770447 584.865112 422.725555 584.865112 C 403.892731 584.865112 388.076385 580.314941 375.270508 571.217529 C 362.467682 562.120117 353.887299 549.989258 349.52948 534.824951 C 348.786621 532.563232 348.93399 530.740234 349.971558 529.352783 C 351.006134 527.968018 352.687317 527.274414 355.018127 527.274414 L 378.347168 527.274414 C 380.68399 527.274414 382.524567 527.730713 383.874908 528.640625 C 385.22226 529.550781 386.428253 531.016602 387.489899 533.031982 C 390.698883 539.714355 395.264252 544.94043 401.185974 548.709717 C 407.107727 552.482178 414.415894 554.365479 423.110535 554.365479 C 434.740417 554.365479 444.165894 550.908447 451.392853 543.991455 C 458.616852 537.074463 463.964142 527.706787 467.428741 515.891113 C 470.79715 504.403076 472.5896 491.530518 472.809143 477.276123 C 470.923462 480.771973 468.649811 484.057861 465.997192 487.13623 C 460.186768 493.870117 452.938721 499.137939 444.250092 502.9375 C 435.561493 506.739746 425.742065 508.641113 414.791809 508.641113 C 401.068665 508.641113 388.903412 505.655518 378.296051 499.687744 C 367.68866 493.719971 359.381989 485.535645 353.373047 475.131592 C 347.361084 464.730713 344.356598 452.930176 344.356598 439.727295 C 344.356598 425.403809 347.791138 412.684082 354.660248 401.5625 C 361.526306 390.440674 370.951782 381.71875 382.930542 375.399414 C 394.909393 369.080322 408.533264 365.920654 423.799194 365.920654 C 439.738861 365.920654 453.600372 369.4646 465.383698 376.555908 C 477.166992 383.646729 486.472137 393.068604 493.296082 404.818359 C 498.835907 414.272949 502.865906 424.634766 505.386169 435.897705 C 507.903442 447.160645 509.163574 459.498535 509.163574 472.917969 C 509.163574 496.302734 505.704987 516.3479 498.790802 533.059082 C 491.876556 549.76709 481.981964 562.579834 469.103943 571.493896 Z M 402.139343 473.644775 C 408.515198 477.177002 415.78125 478.942871 423.940582 478.942871 C 431.862274 478.942871 439.002045 477.177002 445.362885 473.644775 C 451.720703 470.113037 456.773254 465.304443 460.517548 459.213379 C 464.264862 453.125488 466.135559 446.244629 466.135559 438.567627 C 466.135559 430.560791 464.264862 423.343262 460.517548 416.922119 C 456.773254 410.500732 451.738739 405.439941 445.41098 401.742676 C 439.086243 398.04541 431.994598 396.195313 424.14209 396.195313 C 416.250458 396.195313 409.098633 398.027344 402.689697 401.69165 C 396.283813 405.355713 391.174072 410.33252 387.360565 416.621582 C 383.55011 422.910889 381.643372 429.99292 381.643372 437.86792 C 381.643372 445.809082 383.465881 452.876221 387.110962 459.063232 C 390.756012 465.253174 395.766479 470.113037 402.139343 473.644775 Z"/>
                <path id="path6" fill="#ffffff" fill-rule="evenodd" stroke="none" style="mix-blend-mode:color-dodge" d="M 469.103943 571.493896 C 456.228882 580.408081 440.770447 584.865112 422.725555 584.865112 C 403.892731 584.865112 388.076385 580.314941 375.270508 571.217529 C 362.467682 562.120117 353.887299 549.989258 349.52948 534.824951 C 348.786621 532.563232 348.93399 530.740234 349.971558 529.352783 C 351.006134 527.968018 352.687317 527.274414 355.018127 527.274414 L 378.347168 527.274414 C 380.68399 527.274414 382.524567 527.730713 383.874908 528.640625 C 385.22226 529.550781 386.428253 531.016602 387.489899 533.031982 C 390.698883 539.714355 395.264252 544.94043 401.185974 548.709717 C 407.107727 552.482178 414.415894 554.365479 423.110535 554.365479 C 434.740417 554.365479 444.165894 550.908447 451.392853 543.991455 C 458.616852 537.074463 463.964142 527.706787 467.428741 515.891113 C 470.79715 504.403076 472.5896 491.530518 472.809143 477.276123 C 470.923462 480.771973 468.649811 484.057861 465.997192 487.13623 C 460.186768 493.870117 452.938721 499.137939 444.250092 502.9375 C 435.561493 506.739746 425.742065 508.641113 414.791809 508.641113 C 401.068665 508.641113 388.903412 505.655518 378.296051 499.687744 C 367.68866 493.719971 359.381989 485.535645 353.373047 475.131592 C 347.361084 464.730713 344.356598 452.930176 344.356598 439.727295 C 344.356598 425.403809 347.791138 412.684082 354.660248 401.5625 C 361.526306 390.440674 370.951782 381.71875 382.930542 375.399414 C 394.909393 369.080322 408.533264 365.920654 423.799194 365.920654 C 439.738861 365.920654 453.600372 369.4646 465.383698 376.555908 C 477.166992 383.646729 486.472137 393.068604 493.296082 404.818359 C 498.835907 414.272949 502.865906 424.634766 505.386169 435.897705 C 507.903442 447.160645 509.163574 459.498535 509.163574 472.917969 C 509.163574 496.302734 505.704987 516.3479 498.790802 533.059082 C 491.876556 549.76709 481.981964 562.579834 469.103943 571.493896 Z M 402.139343 473.644775 C 408.515198 477.177002 415.78125 478.942871 423.940582 478.942871 C 431.862274 478.942871 439.002045 477.177002 445.362885 473.644775 C 451.720703 470.113037 456.773254 465.304443 460.517548 459.213379 C 464.264862 453.125488 466.135559 446.244629 466.135559 438.567627 C 466.135559 430.560791 464.264862 423.343262 460.517548 416.922119 C 456.773254 410.500732 451.738739 405.439941 445.41098 401.742676 C 439.086243 398.04541 431.994598 396.195313 424.14209 396.195313 C 416.250458 396.195313 409.098633 398.027344 402.689697 401.69165 C 396.283813 405.355713 391.174072 410.33252 387.360565 416.621582 C 383.55011 422.910889 381.643372 429.99292 381.643372 437.86792 C 381.643372 445.809082 383.465881 452.876221 387.110962 459.063232 C 390.756012 465.253174 395.766479 470.113037 402.139343 473.644775 Z"/>
                <path id="path7" fill="#ffffff" fill-opacity="0.8" fill-rule="evenodd" stroke="none" d="M 566.64856 438.168457 C 562.537354 442.273926 557.544922 444.325195 551.671326 444.325195 C 545.698486 444.325195 540.657898 442.273926 536.543701 438.168457 C 532.432434 434.05957 530.378357 429.025879 530.378357 423.061035 C 530.378357 417.195313 532.432434 412.209473 536.543701 408.104004 C 540.657898 403.998047 545.698486 401.943848 551.671326 401.943848 C 557.544922 401.943848 562.537354 403.998047 566.64856 408.104004 C 570.759827 412.209473 572.816956 417.195313 572.816956 423.061035 C 572.816956 429.025879 570.759827 434.05957 566.64856 438.168457 Z M 566.64856 544.051514 C 562.537354 548.157227 557.544922 550.208496 551.671326 550.208496 C 545.698486 550.208496 540.657898 548.157227 536.543701 544.051514 C 532.432434 539.942871 530.378357 534.957031 530.378357 529.091309 C 530.378357 523.225586 532.432434 518.23999 536.543701 514.134277 C 540.657898 510.025391 545.698486 507.974121 551.671326 507.974121 C 557.544922 507.974121 562.537354 510.025391 566.64856 514.134277 C 570.759827 518.23999 572.816956 523.225586 572.816956 529.091309 C 572.816956 534.957031 570.759827 539.942871 566.64856 544.051514 Z"/>
                <path id="path8" fill="#ffffff" fill-rule="evenodd" stroke="none" style="mix-blend-mode:color-dodge" d="M 566.64856 438.168457 C 562.537354 442.273926 557.544922 444.325195 551.671326 444.325195 C 545.698486 444.325195 540.657898 442.273926 536.543701 438.168457 C 532.432434 434.05957 530.378357 429.025879 530.378357 423.061035 C 530.378357 417.195313 532.432434 412.209473 536.543701 408.104004 C 540.657898 403.998047 545.698486 401.943848 551.671326 401.943848 C 557.544922 401.943848 562.537354 403.998047 566.64856 408.104004 C 570.759827 412.209473 572.816956 417.195313 572.816956 423.061035 C 572.816956 429.025879 570.759827 434.05957 566.64856 438.168457 Z M 566.64856 544.051514 C 562.537354 548.157227 557.544922 550.208496 551.671326 550.208496 C 545.698486 550.208496 540.657898 548.157227 536.543701 544.051514 C 532.432434 539.942871 530.378357 534.957031 530.378357 529.091309 C 530.378357 523.225586 532.432434 518.23999 536.543701 514.134277 C 540.657898 510.025391 545.698486 507.974121 551.671326 507.974121 C 557.544922 507.974121 562.537354 510.025391 566.64856 514.134277 C 570.759827 518.23999 572.816956 523.225586 572.816956 529.091309 C 572.816956 534.957031 570.759827 539.942871 566.64856 544.051514 Z"/>
                <path id="path9" fill="#ffffff" fill-opacity="0.8" fill-rule="evenodd" stroke="none" d="M 726.760864 581.152832 L 705.377686 581.152832 C 700.472473 581.152832 698.018372 578.702148 698.018372 573.803467 L 698.018372 540.468506 L 599.616577 540.468506 C 594.705383 540.468506 592.251221 538.017578 592.251221 533.118896 L 592.251221 513.894043 C 592.251221 511.734375 592.455811 509.887451 592.858765 508.352783 C 593.264771 506.817871 594.082825 505.018799 595.309875 502.958496 C 601.718811 491.866699 608.708191 480.036133 616.284058 467.466797 C 623.856873 454.900635 632.503357 441.099609 642.220581 426.064453 C 651.937744 411.029297 663.197754 394.234131 676.000549 375.678955 C 678.785522 371.582031 682.277222 369.533691 686.472656 369.533691 L 726.760864 369.533691 C 731.669067 369.533691 734.123169 371.984619 734.123169 376.88623 L 734.123169 509.743164 L 755.226685 509.743164 C 760.131836 509.743164 762.585999 512.194092 762.585999 517.092529 L 762.585999 533.118896 C 762.585999 538.017578 760.198059 540.468506 755.425171 540.468506 L 734.123169 540.468506 L 734.123169 573.803467 C 734.123169 578.702148 731.669067 581.152832 726.760864 581.152832 Z M 646.623535 475.63916 C 639.537903 487.118408 632.876343 498.486328 626.644836 509.743164 L 698.577759 509.743164 L 698.577759 396.489502 C 688.024475 411.870117 678.499817 426.037354 670.003723 438.991211 C 661.504517 451.942139 653.712158 464.159912 646.623535 475.63916 Z"/>
                <path id="path10" fill="#ffffff" fill-rule="evenodd" stroke="none" style="mix-blend-mode:color-dodge" d="M 726.760864 581.152832 L 705.377686 581.152832 C 700.472473 581.152832 698.018372 578.702148 698.018372 573.803467 L 698.018372 540.468506 L 599.616577 540.468506 C 594.705383 540.468506 592.251221 538.017578 592.251221 533.118896 L 592.251221 513.894043 C 592.251221 511.734375 592.455811 509.887451 592.858765 508.352783 C 593.264771 506.817871 594.082825 505.018799 595.309875 502.958496 C 601.718811 491.866699 608.708191 480.036133 616.284058 467.466797 C 623.856873 454.900635 632.503357 441.099609 642.220581 426.064453 C 651.937744 411.029297 663.197754 394.234131 676.000549 375.678955 C 678.785522 371.582031 682.277222 369.533691 686.472656 369.533691 L 726.760864 369.533691 C 731.669067 369.533691 734.123169 371.984619 734.123169 376.88623 L 734.123169 509.743164 L 755.226685 509.743164 C 760.131836 509.743164 762.585999 512.194092 762.585999 517.092529 L 762.585999 533.118896 C 762.585999 538.017578 760.198059 540.468506 755.425171 540.468506 L 734.123169 540.468506 L 734.123169 573.803467 C 734.123169 578.702148 731.669067 581.152832 726.760864 581.152832 Z M 646.623535 475.63916 C 639.537903 487.118408 632.876343 498.486328 626.644836 509.743164 L 698.577759 509.743164 L 698.577759 396.489502 C 688.024475 411.870117 678.499817 426.037354 670.003723 438.991211 C 661.504517 451.942139 653.712158 464.159912 646.623535 475.63916 Z"/>
                <path id="path11" fill="#ffffff" fill-opacity="0.8" stroke="none" d="M 829.448364 581.152832 L 851.905151 581.152832 C 856.813416 581.152832 859.267456 578.702148 859.267456 573.800537 L 859.267456 376.883301 C 859.267456 371.984619 856.813416 369.533691 851.905151 369.533691 L 828.69043 369.533691 C 825.872375 369.533691 823.598755 369.831055 821.866394 370.428955 C 820.137146 371.026611 818.251404 372.020508 816.215332 373.411133 C 809.183899 378.315918 801.74646 383.517822 793.896851 389.01709 C 786.050293 394.519531 778.576782 399.754395 771.479065 404.725098 C 769.470093 406.085693 768.143799 407.500244 767.497192 408.968994 C 766.847595 410.440674 766.525757 412.468018 766.525757 415.053955 L 766.525757 434.365967 C 766.525757 436.624512 767.455139 438.120117 769.316711 438.850098 C 771.181335 439.577148 773.01593 439.261475 774.829468 437.904053 C 782.943604 432.308594 791.012756 426.695068 799.033691 421.066895 C 807.051575 415.438232 814.735779 410.092285 822.088989 405.031494 L 822.088989 573.800537 C 822.088989 578.702148 824.543091 581.152832 829.448364 581.152832 Z"/>
                <path id="path12" fill="#ffffff" stroke="none" style="mix-blend-mode:color-dodge" d="M 829.448364 581.152832 L 851.905151 581.152832 C 856.813416 581.152832 859.267456 578.702148 859.267456 573.800537 L 859.267456 376.883301 C 859.267456 371.984619 856.813416 369.533691 851.905151 369.533691 L 828.69043 369.533691 C 825.872375 369.533691 823.598755 369.831055 821.866394 370.428955 C 820.137146 371.026611 818.251404 372.020508 816.215332 373.411133 C 809.183899 378.315918 801.74646 383.517822 793.896851 389.01709 C 786.050293 394.519531 778.576782 399.754395 771.479065 404.725098 C 769.470093 406.085693 768.143799 407.500244 767.497192 408.968994 C 766.847595 410.440674 766.525757 412.468018 766.525757 415.053955 L 766.525757 434.365967 C 766.525757 436.624512 767.455139 438.120117 769.316711 438.850098 C 771.181335 439.577148 773.01593 439.261475 774.829468 437.904053 C 782.943604 432.308594 791.012756 426.695068 799.033691 421.066895 C 807.051575 415.438232 814.735779 410.092285 822.088989 405.031494 L 822.088989 573.800537 C 822.088989 578.702148 824.543091 581.152832 829.448364 581.152832 Z"/>
            </g>
            <path id="path13" fill="#ffffff" stroke="none" opacity="0.35" d="M 922.895752 139.059082 L 1060.237427 139.059082 C 1062.175293 139.059082 1063.746216 140.62793 1063.746216 142.563232 L 1063.746216 142.563232 C 1063.746216 144.498291 1062.175293 146.067139 1060.237427 146.067139 L 922.895752 146.067139 C 920.957886 146.067139 919.387085 144.498291 919.387085 142.563232 L 919.387085 142.563232 C 919.387085 140.62793 920.957886 139.059082 922.895752 139.059082 Z"/>
            <path id="path14" fill="none" stroke="#ffffff" stroke-width="3.005459" opacity="0.35" d="M 1040.588501 76.887939 L 1089.911255 76.887939 C 1096.223022 76.887939 1101.339722 81.997803 1101.339722 88.301025 L 1101.339722 101.516113 C 1101.339722 107.819336 1096.223022 112.929199 1089.911255 112.929199 L 1040.588501 112.929199 C 1034.276733 112.929199 1029.160156 107.819336 1029.160156 101.516113 L 1029.160156 88.301025 C 1029.160156 81.997803 1034.276733 76.887939 1040.588501 76.887939 Z"/>
            <path id="path15" fill="#ffffff" stroke="none" opacity="0.4" d="M 1105.550171 89.402344 L 1105.550171 101.41626 C 1107.971191 100.398682 1109.544067 98.031494 1109.544067 95.409424 C 1109.544067 92.786621 1107.971191 90.419922 1105.550171 89.402344 Z"/>
            <path id="path16" fill="#ffffff" stroke="none" d="M 1040.588501 81.393066 L 1088.708252 81.393066 C 1092.860718 81.393066 1096.226929 84.754883 1096.226929 88.901611 L 1096.226929 100.915283 C 1096.226929 105.062256 1092.860718 108.424072 1088.708252 108.424072 L 1040.588501 108.424072 C 1036.436035 108.424072 1033.069824 105.062256 1033.069824 100.915283 L 1033.069824 88.901611 C 1033.069824 84.754883 1036.436035 81.393066 1040.588501 81.393066 Z"/>
            <path id="path17" fill="#ffffff" fill-rule="evenodd" stroke="none" d="M 979.750183 84.458496 C 987.229797 84.45874 994.423645 87.176758 999.846191 92.05127 C 1000.255188 92.42749 1000.907837 92.422607 1001.3078 92.040283 L 1005.211548 88.316162 C 1005.412964 88.12207 1005.527344 87.859619 1005.527344 87.586182 C 1005.524292 87.313232 1005.407043 87.052002 1005.202515 86.860352 C 990.97406 73.964355 968.526245 73.964355 954.297913 86.860352 C 954.090393 87.051514 953.976013 87.312744 953.973083 87.586182 C 953.970093 87.859375 954.084351 88.12207 954.288818 88.316162 L 958.192566 92.040283 C 958.592529 92.42334 959.245178 92.427979 959.654175 92.05127 C 965.07666 87.176514 972.270569 84.458496 979.750183 84.458496 Z M 979.744202 96.898926 C 983.828369 96.898682 987.765137 98.407227 990.790588 101.131348 C 991.199707 101.518066 991.843262 101.509766 992.243225 101.112549 L 996.113892 97.223633 C 996.31842 97.019287 996.432678 96.742676 996.429626 96.455322 C 996.426697 96.167725 996.306396 95.893066 996.098877 95.693359 C 986.883972 87.171631 972.613464 87.171631 963.401489 95.693359 C 963.19104 95.893066 963.07373 96.167969 963.07074 96.455322 C 963.067688 96.743164 963.181946 97.019775 963.386414 97.223633 L 967.257141 101.112549 C 967.654053 101.509766 968.300659 101.518066 968.709717 101.131348 C 971.7323 98.40918 975.666016 96.900879 979.744202 96.898926 Z M 987.332031 105.133789 C 987.335083 105.444336 987.223816 105.743652 987.022278 105.961426 L 980.474976 113.19751 C 980.285522 113.410156 980.023865 113.529785 979.750183 113.529785 C 979.476501 113.529785 979.214844 113.410156 979.022339 113.19751 L 972.475037 105.961426 C 972.273621 105.743652 972.162292 105.444336 972.168335 105.133789 C 972.174377 104.823242 972.297668 104.528809 972.508179 104.320801 C 976.688538 100.447754 982.811829 100.447754 986.992188 104.320801 C 987.202698 104.529297 987.32605 104.823242 987.332031 105.133789 Z"/>
            <path id="path18" fill="#ffffff" fill-rule="evenodd" stroke="none" d="M 931.416992 80.266846 C 931.416992 78.400879 929.979309 76.887939 928.207947 76.887939 L 925.001953 76.887939 C 923.230591 76.887939 921.79303 78.400879 921.79303 80.266846 L 921.79303 109.550293 C 921.79303 111.416504 923.230591 112.929199 925.001953 112.929199 L 928.207947 112.929199 C 929.979309 112.929199 931.416992 111.416504 931.416992 109.550293 L 931.416992 80.266846 Z M 909.062317 84.096191 L 912.268372 84.096191 C 914.039734 84.096191 915.477295 85.645508 915.477295 87.556152 L 915.477295 109.469238 C 915.477295 111.380127 914.039734 112.929199 912.268372 112.929199 L 909.062317 112.929199 C 907.290955 112.929199 905.853394 111.380127 905.853394 109.469238 L 905.853394 87.556152 C 905.853394 85.645508 907.290955 84.096191 909.062317 84.096191 Z M 896.027954 91.905029 L 892.82196 91.905029 C 891.050598 91.905029 889.612915 93.473877 889.612915 95.409424 L 889.612915 109.425049 C 889.612915 111.360596 891.050598 112.929199 892.82196 112.929199 L 896.027954 112.929199 C 897.799316 112.929199 899.236877 111.360596 899.236877 109.425049 L 899.236877 95.409424 C 899.236877 93.473877 897.799316 91.905029 896.027954 91.905029 Z M 880.088257 99.113281 L 876.882263 99.113281 C 875.110901 99.113281 873.67334 100.659912 873.67334 102.567383 L 873.67334 109.475342 C 873.67334 111.382568 875.110901 112.929199 876.882263 112.929199 L 880.088257 112.929199 C 881.859619 112.929199 883.297302 111.382568 883.297302 109.475342 L 883.297302 102.567383 C 883.297302 100.659912 881.859619 99.113281 880.088257 99.113281 Z"/>
            <path id="path19" fill="#ffffff" stroke="none" d="M 433.997589 298.842041 L 433.997589 252.285645 L 463.140106 252.285645 L 463.140106 258.544922 L 441.266693 258.544922 L 441.266693 273.256836 L 461.296478 273.256836 L 461.296478 279.354736 L 441.266693 279.354736 L 441.266693 298.842041 L 433.997589 298.842041 Z M 469.482849 298.842041 L 469.482849 264.384277 L 476.493317 264.384277 L 476.493317 269.933838 L 476.848206 269.933838 C 477.431641 267.998047 478.454163 266.481689 479.918823 265.384766 C 481.383453 264.287842 483.181946 263.739258 485.31427 263.739258 C 485.8526 263.739258 486.357849 263.77124 486.833008 263.835938 C 487.326233 263.900635 487.726257 263.965088 488.026978 264.029541 L 488.026978 270.514893 C 487.596954 270.385498 487.07962 270.288818 486.475159 270.224121 C 485.894684 270.159668 485.269135 270.127686 484.601501 270.127686 C 482.965393 270.127686 481.533844 270.460938 480.306763 271.127686 C 479.100769 271.772949 478.162445 272.708496 477.494781 273.93457 C 476.827118 275.13916 476.493317 276.59082 476.493317 278.290039 L 476.493317 298.842041 L 469.482849 298.842041 Z M 493.112671 298.842041 L 493.112671 264.384277 L 500.123077 264.384277 L 500.123077 298.842041 L 493.112671 298.842041 Z M 496.634399 258.673828 C 495.47052 258.673828 494.468994 258.265137 493.629944 257.447998 C 492.808868 256.609131 492.399902 255.619385 492.399902 254.479736 C 492.399902 253.318115 492.808868 252.328613 493.629944 251.511475 C 494.468994 250.694092 495.47052 250.2854 496.634399 250.2854 C 497.816345 250.2854 498.820862 250.694092 499.638885 251.511475 C 500.45694 252.328613 500.865906 253.318115 500.865906 254.479736 C 500.865906 255.619385 500.45694 256.609131 499.638885 257.447998 C 498.820862 258.265137 497.816345 258.673828 496.634399 258.673828 Z M 520.874695 299.487549 C 517.969482 299.487549 515.437195 298.755859 513.283875 297.293213 C 511.130463 295.830566 509.461304 293.765625 508.276367 291.098633 C 507.112488 288.431641 506.532013 285.269531 506.532013 281.613281 L 506.532013 281.581055 C 506.532013 277.924561 507.112488 274.762451 508.276367 272.095459 C 509.461304 269.428467 511.130463 267.374512 513.283875 265.933105 C 515.437195 264.470703 517.957458 263.739258 520.844604 263.739258 C 522.459656 263.739258 523.954346 263.99707 525.334778 264.513672 C 526.733276 265.029785 527.960327 265.76123 529.01593 266.70752 C 530.092651 267.632324 530.95575 268.73999 531.602356 270.030518 L 531.957275 270.030518 L 531.957275 251.220947 L 538.967712 251.220947 L 538.967712 298.842041 L 531.957275 298.842041 L 531.957275 293.195801 L 531.602356 293.195801 C 530.934692 294.508057 530.071594 295.626465 529.01593 296.55127 C 527.960327 297.47583 526.7453 298.196777 525.367859 298.712891 C 524.008484 299.229492 522.513794 299.487549 520.874695 299.487549 Z M 522.814514 293.454102 C 524.667114 293.454102 526.282166 292.980713 527.659607 292.034424 C 529.040039 291.066406 530.104675 289.700684 530.859558 287.936768 C 531.635437 286.151611 532.020447 284.054443 532.020447 281.645508 L 532.020447 281.581055 C 532.020447 279.171875 531.635437 277.085693 530.859558 275.321777 C 530.083618 273.536621 529.006958 272.159912 527.626526 271.191895 C 526.270142 270.224121 524.667114 269.73999 522.814514 269.73999 C 520.940857 269.73999 519.313843 270.224121 517.936401 271.191895 C 516.555969 272.138428 515.503357 273.493408 514.769531 275.257568 C 514.038696 277.020996 513.671814 279.128906 513.671814 281.581055 L 513.671814 281.613281 C 513.671814 284.065186 514.038696 286.184082 514.769531 287.969238 C 515.503357 289.73291 516.546936 291.087891 517.90332 292.034424 C 519.280701 292.980713 520.9198 293.454102 522.814514 293.454102 Z M 556.847229 299.45459 C 554.606628 299.45459 552.624695 299.025146 550.901428 298.164307 C 549.178101 297.304199 547.821716 296.099609 546.829285 294.550781 C 545.839844 292.980713 545.343567 291.16333 545.343567 289.098633 L 545.343567 289.033936 C 545.343567 287.011963 545.851868 285.269531 546.862366 283.806885 C 547.875916 282.344727 549.340515 281.193848 551.256287 280.35498 C 553.172058 279.494629 555.499817 278.989258 558.233643 278.838379 L 571.126709 278.064209 L 571.126709 283.000488 L 559.171997 283.74292 C 556.931396 283.871582 555.241211 284.376953 554.098389 285.258789 C 552.958496 286.119385 552.387085 287.30249 552.387085 288.807861 L 552.387085 288.872803 C 552.387085 290.421143 552.967529 291.636475 554.13147 292.518311 C 555.316406 293.400391 556.856201 293.841309 558.750916 293.841309 C 560.432068 293.841309 561.938843 293.49707 563.27417 292.808594 C 564.609497 292.120361 565.656067 291.195557 566.407959 290.033936 C 567.183899 288.851074 567.571899 287.517334 567.571899 286.033447 L 567.571899 275.483398 C 567.571899 273.590332 566.97937 272.127686 565.794434 271.095215 C 564.609497 270.04126 562.88623 269.514648 560.624573 269.514648 C 558.645691 269.514648 557.039673 269.901855 555.812622 270.676025 C 554.585571 271.450195 553.797607 272.482666 553.454773 273.773193 L 553.388611 273.999023 L 546.733032 273.999023 L 546.766113 273.676514 C 546.982605 271.740723 547.68042 270.030518 548.865356 268.546631 C 550.07135 267.041016 551.68634 265.85791 553.713379 264.997314 C 555.758484 264.137207 558.149475 263.707275 560.88324 263.707275 C 563.74939 263.707275 566.194397 264.180176 568.218445 265.126709 C 570.263611 266.051514 571.836487 267.374512 572.934204 269.094971 C 574.031921 270.794434 574.582275 272.82666 574.582275 275.192871 L 574.582275 298.842041 L 567.571899 298.842041 L 567.571899 293.679688 L 567.250061 293.679688 C 566.579407 294.862793 565.719299 295.895264 564.663635 296.7771 C 563.629028 297.637451 562.444092 298.304199 561.108765 298.777344 C 559.797485 299.229492 558.375 299.45459 556.847229 299.45459 Z M 585.385193 310.651367 C 584.825806 310.651367 584.242371 310.618408 583.640869 310.552246 C 583.060364 310.510254 582.552124 310.456299 582.12207 310.393066 L 582.12207 304.908936 C 582.422852 304.950928 582.77771 304.99292 583.186707 305.035156 C 583.598755 305.080078 584.016785 305.101074 584.446838 305.101074 C 586.085938 305.101074 587.400208 304.767822 588.389648 304.10083 C 589.403198 303.434082 590.176086 302.262695 590.714417 300.583984 L 591.264832 298.875 L 578.696533 264.384277 L 586.320496 264.384277 L 595.755005 294.680176 L 594.076843 292.16333 L 596.239197 292.16333 L 594.591064 294.680176 L 604.025574 264.384277 L 611.390869 264.384277 L 598.566956 300.292725 C 597.661743 302.854492 596.618164 304.88501 595.433167 306.392578 C 594.269287 307.918213 592.879822 309.005615 591.264832 309.651367 C 589.64978 310.318115 587.688904 310.651367 585.385193 310.651367 Z M 631.414673 298.842041 L 631.414673 293.873291 L 647.405457 277.548096 C 649.474609 275.440186 651.068604 273.697998 652.187317 272.321289 C 653.309143 270.944824 654.082092 269.708008 654.515137 268.611084 C 654.945251 267.513916 655.161743 266.352539 655.161743 265.126709 L 655.161743 265.062012 C 655.161743 263.556396 654.815918 262.2229 654.127197 261.061279 C 653.459534 259.899902 652.512146 258.985596 651.282104 258.319092 C 650.076111 257.6521 648.644531 257.318848 646.987427 257.318848 C 645.222046 257.318848 643.649109 257.684326 642.268677 258.415527 C 640.912292 259.146973 639.847656 260.147217 639.071716 261.416504 C 638.316833 262.685303 637.928894 264.137207 637.907837 265.771973 L 637.907837 265.933105 L 631.059814 265.933105 L 631.026733 265.771973 C 631.026733 262.97583 631.727478 260.491211 633.125916 258.319092 C 634.527405 256.125 636.443176 254.415039 638.876221 253.189209 C 641.312317 251.963135 644.067139 251.350098 647.146851 251.350098 C 650.100159 251.350098 652.716675 251.920166 654.999329 253.059814 C 657.303101 254.200195 659.101563 255.759277 660.394775 257.738525 C 661.709045 259.717041 662.364685 261.975586 662.364685 264.513672 L 662.364685 264.610107 C 662.364685 266.352539 662.042908 268.041016 661.396301 269.676025 C 660.749634 271.288818 659.639893 273.074219 658.066956 275.031738 C 656.49707 276.967285 654.310669 279.333252 651.510681 282.12915 L 639.038635 294.389648 L 641.237122 290.388672 L 641.237122 294.389648 L 639.071716 292.711914 L 663.107483 292.711914 L 663.107483 298.842041 L 631.414673 298.842041 Z M 686.135803 298.842041 L 686.135803 252.285645 L 694.535706 252.285645 L 709.491882 289.388428 L 709.849792 289.388428 L 724.80603 252.285645 L 733.205933 252.285645 L 733.205933 298.842041 L 726.583435 298.842041 L 726.583435 264.610107 L 723.127808 264.610107 L 730.685608 253.576172 L 712.336975 298.842041 L 707.0047 298.842041 L 688.656067 253.576172 L 696.213867 264.610107 L 692.758301 264.610107 L 692.758301 298.842041 L 686.135803 298.842041 Z M 751.214661 299.45459 C 748.974121 299.45459 746.992188 299.025146 745.26886 298.164307 C 743.545593 297.304199 742.18927 296.099609 741.199768 294.550781 C 740.207275 292.980713 739.71106 291.16333 739.71106 289.098633 L 739.71106 289.033936 C 739.71106 287.011963 740.21936 285.269531 741.229858 283.806885 C 742.243347 282.344727 743.708008 281.193848 745.623779 280.35498 C 747.542603 279.494629 749.867371 278.989258 752.604187 278.838379 L 765.494202 278.064209 L 765.494202 283.000488 L 753.539429 283.74292 C 751.298889 283.871582 749.608704 284.376953 748.468872 285.258789 C 747.325989 286.119385 746.754578 287.30249 746.754578 288.807861 L 746.754578 288.872803 C 746.754578 290.421143 747.338013 291.636475 748.498901 292.518311 C 749.683899 293.400391 751.223755 293.841309 753.118408 293.841309 C 754.799622 293.841309 756.306396 293.49707 757.641724 292.808594 C 758.977051 292.120361 760.023621 291.195557 760.775452 290.033936 C 761.551392 288.851074 761.939392 287.517334 761.939392 286.033447 L 761.939392 275.483398 C 761.939392 273.590332 761.346924 272.127686 760.161987 271.095215 C 758.977051 270.04126 757.253723 269.514648 754.992065 269.514648 C 753.013184 269.514648 751.407166 269.901855 750.180115 270.676025 C 748.953064 271.450195 748.1651 272.482666 747.822266 273.773193 L 747.756104 273.999023 L 741.100525 273.999023 L 741.133606 273.676514 C 741.350159 271.740723 742.047852 270.030518 743.232849 268.546631 C 744.438843 267.041016 746.053833 265.85791 748.080933 264.997314 C 750.125977 264.137207 752.516907 263.707275 755.250732 263.707275 C 758.116821 263.707275 760.561951 264.180176 762.585999 265.126709 C 764.631042 266.051514 766.203979 267.374512 767.301697 269.094971 C 768.399475 270.794434 768.949768 272.82666 768.949768 275.192871 L 768.949768 298.842041 L 761.939392 298.842041 L 761.939392 293.679688 L 761.617554 293.679688 C 760.94989 294.862793 760.086731 295.895264 759.031128 296.7771 C 757.999573 297.637451 756.814636 298.304199 755.479309 298.777344 C 754.165039 299.229492 752.742493 299.45459 751.214661 299.45459 Z M 779.752686 310.651367 C 779.193237 310.651367 778.612854 310.618408 778.008362 310.552246 C 777.427856 310.510254 776.919678 310.456299 776.489563 310.393066 L 776.489563 304.908936 C 776.790344 304.950928 777.148193 304.99292 777.55719 305.035156 C 777.966248 305.080078 778.384338 305.101074 778.817322 305.101074 C 780.45343 305.101074 781.7677 304.767822 782.757141 304.10083 C 783.770691 303.434082 784.54657 302.262695 785.084961 300.583984 L 785.632324 298.875 L 773.064026 264.384277 L 780.69104 264.384277 L 790.122437 294.680176 L 788.444336 292.16333 L 790.606689 292.16333 L 788.961609 294.680176 L 798.393005 264.384277 L 805.761414 264.384277 L 792.934448 300.292725 C 792.029236 302.854492 790.985657 304.88501 789.800659 306.392578 C 788.63678 307.918213 787.247314 309.005615 785.632324 309.651367 C 784.017273 310.318115 782.056396 310.651367 779.752686 310.651367 Z"/>
        </g>
    </g>
</svg>
