<?xml version="1.0" encoding="UTF-8"?>
<!-- Generated by Pixelmator Pro 3.6.17 -->
<svg width="1769" height="990" viewBox="0 0 1769 990" xmlns="http://www.w3.org/2000/svg">
    <path id="svg-mask" fill="#ffffff" fill-rule="evenodd" stroke="none" d="M 451.329529 990 L 451.329529 254.73645 C 451.329529 172.625366 451.329529 131.569824 468.569 100.786499 C 480.752899 79.030518 498.71579 61.067627 520.47168 48.883789 C 551.255005 31.644287 592.310547 31.644287 674.421692 31.644287 L 1095.578247 31.644287 C 1177.689453 31.644287 1218.744995 31.644287 1249.52832 48.883789 C 1271.28418 61.067749 1289.24707 79.03064 1301.43103 100.786499 C 1318.670532 131.569824 1318.670532 172.625366 1318.670532 254.73645 L 1318.670532 990 L 451.329529 990 Z M 750.511841 101.405518 C 750.511841 122.854126 767.899353 140.241699 789.347961 140.241699 L 980.652039 140.241699 C 1002.100647 140.241699 1019.488159 122.854126 1019.488159 101.405518 C 1019.488159 79.956909 1002.100647 62.569336 980.652039 62.569336 L 789.347961 62.569336 C 767.899353 62.569336 750.511841 79.956909 750.511841 101.405518 Z"/>
</svg>
